<?xml version="1.0" encoding="iso-8859-1"?>
<!-- Generator: Adobe Illustrator 19.0.0, SVG Export Plug-In . SVG Version: 6.00 Build 0)  -->
<svg version="1.1" id="Capa_1" xmlns="http://www.w3.org/2000/svg" xmlns:xlink="http://www.w3.org/1999/xlink" x="0px" y="0px"
	 viewBox="0 0 468.293 468.293" style="enable-background:new 0 0 468.293 468.293;" xml:space="preserve">
<g>
	<rect x="149.854" y="48.078" style="fill:#2F4859;" width="9.366" height="34.966"/>
	<rect x="309.073" y="48.078" style="fill:#2F4859;" width="9.366" height="34.966"/>
</g>
<rect x="134.868" style="fill:#64798A;" width="198.556" height="61.19"/>
<g>
	<path style="fill:#E1E6E9;" d="M154.224,47.454V13.737h5.62v14.361h16.859V13.737h5.62v33.717h-5.62V33.717h-16.859v13.737
		C159.844,47.454,154.224,47.454,154.224,47.454z"/>
	<path style="fill:#E1E6E9;" d="M220.41,43.083c-3.122,3.122-7.493,4.995-12.488,4.995s-9.366-1.873-12.488-4.995
		c-3.122-3.122-4.995-7.493-4.995-12.488s1.873-9.366,4.995-12.488s7.493-4.995,12.488-4.995s9.366,1.873,12.488,4.995
		c3.122,3.122,4.995,7.493,4.995,12.488S223.532,39.961,220.41,43.083z M216.039,21.854c-2.498-2.498-4.995-3.746-8.741-3.746
		c-3.122,0-6.244,1.249-8.741,3.746c-2.498,2.498-3.746,4.995-3.746,8.741c0,3.122,1.249,6.244,3.746,8.741
		c2.498,2.498,4.995,3.746,8.741,3.746c3.122,0,6.244-1.249,8.741-3.746c2.498-2.498,3.746-4.995,3.746-8.741
		C219.785,27.473,218.537,24.351,216.039,21.854z"/>
	<path style="fill:#E1E6E9;" d="M244.761,19.356v28.722h-5.62V19.356h-9.99v-5.62h26.224v4.995L244.761,19.356L244.761,19.356z"/>
	<path style="fill:#E1E6E9;" d="M284.722,13.737v5.62h-18.107v8.741h16.234v4.995h-16.234v8.741h18.732v5.62h-24.351V13.737H284.722
		z"/>
	<path style="fill:#E1E6E9;" d="M292.839,47.454V13.737h5.62v28.722h15.61v5.62L292.839,47.454L292.839,47.454z"/>
</g>
<g>
	<rect x="333.424" y="197.307" style="fill:#D5D6DB;" width="130.498" height="270.985"/>
	<rect x="4.371" y="197.307" style="fill:#D5D6DB;" width="130.498" height="270.985"/>
</g>
<rect x="129.249" y="74.302" style="fill:#E1E6E9;" width="210.42" height="393.99"/>
<g>
	<path style="fill:#27A2DB;" d="M383.376,275.98h-24.351c-3.746,0-6.244-2.498-6.244-6.244v-24.351c0-3.746,2.498-6.244,6.244-6.244
		h24.351c3.746,0,6.244,2.498,6.244,6.244v24.351C389.62,272.859,386.498,275.98,383.376,275.98z"/>
	<path style="fill:#27A2DB;" d="M438.322,275.98h-24.351c-3.746,0-6.244-2.498-6.244-6.244v-24.351c0-3.746,2.498-6.244,6.244-6.244
		h24.351c3.746,0,6.244,2.498,6.244,6.244v24.351C444.566,272.859,442.068,275.98,438.322,275.98z"/>
	<path style="fill:#27A2DB;" d="M383.376,350.907h-24.351c-3.746,0-6.244-2.498-6.244-6.244v-24.351
		c0-3.746,2.498-6.244,6.244-6.244h24.351c3.746,0,6.244,2.498,6.244,6.244v24.351C389.62,348.41,386.498,350.907,383.376,350.907z"
		/>
	<path style="fill:#27A2DB;" d="M438.322,350.907h-24.351c-3.746,0-6.244-2.498-6.244-6.244v-24.351
		c0-3.746,2.498-6.244,6.244-6.244h24.351c3.746,0,6.244,2.498,6.244,6.244v24.351C444.566,348.41,442.068,350.907,438.322,350.907z
		"/>
	<path style="fill:#27A2DB;" d="M383.376,426.459h-24.351c-3.746,0-6.244-2.498-6.244-6.244v-23.727
		c0-3.746,2.498-6.244,6.244-6.244h24.351c3.746,0,6.244,2.498,6.244,6.244v24.351C389.62,423.961,386.498,426.459,383.376,426.459z
		"/>
	<path style="fill:#27A2DB;" d="M438.322,426.459h-24.351c-3.746,0-6.244-2.498-6.244-6.244v-23.727
		c0-3.746,2.498-6.244,6.244-6.244h24.351c3.746,0,6.244,2.498,6.244,6.244v24.351C444.566,423.961,442.068,426.459,438.322,426.459
		z"/>
	<path style="fill:#27A2DB;" d="M54.322,275.98H29.971c-3.746,0-6.244-2.498-6.244-6.244v-24.351c0-3.746,2.498-6.244,6.244-6.244
		h24.351c3.746,0,6.244,2.498,6.244,6.244v24.351C60.566,272.859,57.444,275.98,54.322,275.98z"/>
	<path style="fill:#27A2DB;" d="M109.268,275.98H84.917c-3.746,0-6.244-2.498-6.244-6.244v-24.351c0-3.746,2.498-6.244,6.244-6.244
		h24.351c3.746,0,6.244,2.498,6.244,6.244v24.351C115.512,272.859,113.015,275.98,109.268,275.98z"/>
	<path style="fill:#27A2DB;" d="M54.322,350.907H29.971c-3.746,0-6.244-2.498-6.244-6.244v-24.351c0-3.746,2.498-6.244,6.244-6.244
		h24.351c3.746,0,6.244,2.498,6.244,6.244v24.351C60.566,348.41,57.444,350.907,54.322,350.907z"/>
	<path style="fill:#27A2DB;" d="M109.268,350.907H84.917c-3.746,0-6.244-2.498-6.244-6.244v-24.351c0-3.746,2.498-6.244,6.244-6.244
		h24.351c3.746,0,6.244,2.498,6.244,6.244v24.351C115.512,348.41,113.015,350.907,109.268,350.907z"/>
	<path style="fill:#27A2DB;" d="M54.322,426.459H29.971c-3.746,0-6.244-2.498-6.244-6.244v-23.727c0-3.746,2.498-6.244,6.244-6.244
		h24.351c3.746,0,6.244,2.498,6.244,6.244v24.351C60.566,423.961,57.444,426.459,54.322,426.459z"/>
	<path style="fill:#27A2DB;" d="M109.268,426.459H84.917c-3.746,0-6.244-2.498-6.244-6.244v-23.727c0-3.746,2.498-6.244,6.244-6.244
		h24.351c3.746,0,6.244,2.498,6.244,6.244v24.351C115.512,423.961,113.015,426.459,109.268,426.459z"/>
	<path style="fill:#27A2DB;" d="M191.063,144.859h-24.351c-3.746,0-6.244-2.498-6.244-6.244v-24.351
		c0-3.746,2.498-6.244,6.244-6.244h24.351c3.746,0,6.244,2.498,6.244,6.244v24.351C197.307,141.737,194.81,144.859,191.063,144.859z
		"/>
	<path style="fill:#27A2DB;" d="M246.01,144.859h-24.351c-3.746,0-6.244-2.498-6.244-6.244v-24.351c0-3.746,2.498-6.244,6.244-6.244
		h24.351c3.746,0,6.244,2.498,6.244,6.244v24.351C252.254,141.737,249.756,144.859,246.01,144.859z"/>
	<path style="fill:#27A2DB;" d="M301.58,144.859h-24.351c-3.746,0-6.244-2.498-6.244-6.244v-24.351c0-3.746,2.498-6.244,6.244-6.244
		h24.351c3.746,0,6.244,2.498,6.244,6.244v24.351C307.824,141.737,304.702,144.859,301.58,144.859z"/>
	<path style="fill:#27A2DB;" d="M191.063,206.673h-24.351c-3.746,0-6.244-2.498-6.244-6.244v-24.351
		c0-3.746,2.498-6.244,6.244-6.244h24.351c3.746,0,6.244,2.498,6.244,6.244v24.351C197.307,203.551,194.81,206.673,191.063,206.673z
		"/>
	<path style="fill:#27A2DB;" d="M246.01,206.673h-24.351c-3.746,0-6.244-2.498-6.244-6.244v-24.351c0-3.746,2.498-6.244,6.244-6.244
		h24.351c3.746,0,6.244,2.498,6.244,6.244v24.351C252.254,203.551,249.756,206.673,246.01,206.673z"/>
	<path style="fill:#27A2DB;" d="M301.58,206.673h-24.351c-3.746,0-6.244-2.498-6.244-6.244v-24.351c0-3.746,2.498-6.244,6.244-6.244
		h24.351c3.746,0,6.244,2.498,6.244,6.244v24.351C307.824,203.551,304.702,206.673,301.58,206.673z"/>
	<path style="fill:#27A2DB;" d="M191.063,268.488h-24.351c-3.746,0-6.244-2.498-6.244-6.244v-24.351
		c0-3.746,2.498-6.244,6.244-6.244h24.351c3.746,0,6.244,2.498,6.244,6.244v24.351C197.307,265.366,194.81,268.488,191.063,268.488z
		"/>
	<path style="fill:#27A2DB;" d="M246.01,268.488h-24.351c-3.746,0-6.244-2.498-6.244-6.244v-24.351c0-3.746,2.498-6.244,6.244-6.244
		h24.351c3.746,0,6.244,2.498,6.244,6.244v24.351C252.254,265.366,249.756,268.488,246.01,268.488z"/>
	<path style="fill:#27A2DB;" d="M301.58,268.488h-24.351c-3.746,0-6.244-2.498-6.244-6.244v-24.351c0-3.746,2.498-6.244,6.244-6.244
		h24.351c3.746,0,6.244,2.498,6.244,6.244v24.351C307.824,265.366,304.702,268.488,301.58,268.488z"/>
	<path style="fill:#27A2DB;" d="M191.063,330.302h-24.351c-3.746,0-6.244-2.498-6.244-6.244v-24.351
		c0-3.746,2.498-6.244,6.244-6.244h24.351c3.746,0,6.244,2.498,6.244,6.244v24.351C197.307,327.18,194.81,330.302,191.063,330.302z"
		/>
	<path style="fill:#27A2DB;" d="M246.01,330.302h-24.351c-3.746,0-6.244-2.498-6.244-6.244v-24.351c0-3.746,2.498-6.244,6.244-6.244
		h24.351c3.746,0,6.244,2.498,6.244,6.244v24.351C252.254,327.18,249.756,330.302,246.01,330.302z"/>
	<path style="fill:#27A2DB;" d="M301.58,330.302h-24.351c-3.746,0-6.244-2.498-6.244-6.244v-24.351c0-3.746,2.498-6.244,6.244-6.244
		h24.351c3.746,0,6.244,2.498,6.244,6.244v24.351C307.824,327.18,304.702,330.302,301.58,330.302z"/>
</g>
<path style="fill:#64798A;" d="M276.605,468.293h-84.917v-91.785c0-6.868,5.62-12.488,12.488-12.488h60.566
	c6.868,0,12.488,5.62,12.488,12.488v91.785H276.605z"/>
<g>
</g>
<g>
</g>
<g>
</g>
<g>
</g>
<g>
</g>
<g>
</g>
<g>
</g>
<g>
</g>
<g>
</g>
<g>
</g>
<g>
</g>
<g>
</g>
<g>
</g>
<g>
</g>
<g>
</g>
</svg>
