<?xml version="1.0" encoding="iso-8859-1"?>
<!-- Generator: Adobe Illustrator 19.0.0, SVG Export Plug-In . SVG Version: 6.00 Build 0)  -->
<svg version="1.1" id="Capa_1" xmlns="http://www.w3.org/2000/svg" xmlns:xlink="http://www.w3.org/1999/xlink" x="0px" y="0px"
	 viewBox="0 0 468.293 468.293" style="enable-background:new 0 0 468.293 468.293;" xml:space="preserve">
<rect x="31.22" style="fill:#2D93BA;" width="345.912" height="408.351"/>
<polygon style="fill:#D5D6DB;" points="377.132,468.293 109.268,468.293 109.268,96.78 377.132,3.746 "/>
<rect x="109.268" y="96.78" style="fill:#27A2DB;" width="327.805" height="371.512"/>
<g>
	<path style="fill:#D5D6DB;" d="M330.302,227.902l-7.493-7.493l8.741-8.741c1.873-1.873,5.62-1.873,7.493,0l0,0
		c1.873,1.873,1.873,5.62,0,7.493L330.302,227.902z"/>
	<path style="fill:#D5D6DB;" d="M239.141,136.741l7.493,7.493l8.741-8.741c1.873-1.873,1.873-5.62,0-7.493l0,0
		c-1.873-1.873-5.62-1.873-7.493,0L239.141,136.741z"/>
	<polygon style="fill:#D5D6DB;" points="261.62,258.498 257.249,262.868 204.176,209.795 208.546,205.424 246.01,221.034 	"/>
</g>
<g>
	<polygon style="fill:#EBF0F3;" points="326.556,256 292.215,194.81 319.063,167.961 335.298,247.883 	"/>
	<polygon style="fill:#EBF0F3;" points="211.044,140.488 272.234,174.829 299.083,147.98 219.161,131.746 	"/>
</g>
<g>
	<polygon style="fill:#D5D6DB;" points="217.288,133.62 293.463,153.6 299.083,147.98 219.161,131.746 	"/>
	<polygon style="fill:#D5D6DB;" points="333.424,249.756 313.444,173.58 319.063,167.961 335.298,247.883 	"/>
</g>
<path style="fill:#E1E6E9;" d="M341.541,134.868c-1.873,12.488-7.493,24.351-16.234,33.717l-87.415,73.054
	c-3.122,3.122-8.741,2.498-11.863-0.624c-3.122-3.122-3.122-8.117-0.624-11.863l73.054-87.415
	c9.366-9.366,20.605-14.985,33.717-16.234c2.498-0.624,4.995,0.624,6.868,2.498C340.917,129.249,342.166,131.746,341.541,134.868z"
	/>
<path style="fill:#64798A;" d="M325.932,156.722c-0.624-0.624-0.624-1.249-0.624-1.873c0-7.493-5.62-13.112-13.112-13.112
	c-1.249,0-2.498-1.249-2.498-2.498c0-1.249,1.249-2.498,2.498-2.498c9.99,0,18.107,8.117,18.107,18.107
	c0,1.249-1.249,2.498-2.498,2.498C326.556,157.346,325.932,157.346,325.932,156.722z"/>
<circle style="fill:#44C4A1;" cx="272.859" cy="364.644" r="74.927"/>
<path style="fill:#EBF0F3;" d="M347.785,364.644c0-18.732-6.868-36.215-19.356-49.951l0,0l-1.873-1.873
	c-14.361-14.985-33.093-23.102-53.698-23.102c-2.498,0-4.995,0-7.493,0.624c-2.498,0.624-4.995,0.624-7.493,1.249
	c-14.985,3.122-28.098,10.615-38.712,21.229l0,0l0,0l-1.873,1.873l0,0c-12.488,13.737-19.356,31.22-19.356,49.951
	c0,19.356,7.493,36.839,19.356,49.951l0,0l1.873,1.873l0.624,0.624l0,0c14.361,14.361,32.468,21.854,52.449,21.854l0,0l0,0
	c19.98,0,38.712-7.493,52.449-21.854l0,0l0.624-0.624l1.873-1.873l0,0C340.917,401.483,347.785,384,347.785,364.644z
	 M320.312,415.219c-1.249,1.249-2.498,1.873-3.746,3.122c-0.624,0.624-1.249,1.249-1.873,1.249
	c-1.249,0.624-1.873,1.249-3.122,2.498c-0.624,0.624-1.873,1.249-2.498,1.873c-0.624,0.624-1.249,0.624-2.498,1.249
	c-1.249,0.624-2.498,1.249-3.746,1.873c-0.624,0.624-1.249,0.624-2.498,1.249c-1.249,0.624-2.498,1.249-3.746,1.249
	c-1.249,0.624-2.498,0.624-3.746,1.249c-0.624,0-1.249,0.624-2.498,0.624h-0.624c6.244-6.244,11.863-15.61,15.61-27.473
	c4.995,3.122,9.99,6.244,14.985,10.615C320.312,415.219,320.312,415.219,320.312,415.219z M252.254,430.829
	c-1.249-0.624-2.498-0.624-3.746-1.249c-1.249-0.624-2.498-1.249-3.746-1.249c-0.624-0.624-1.249-0.624-2.498-1.249
	c-1.249-0.624-2.498-1.249-3.122-1.873c-0.624-0.624-1.873-0.624-2.498-1.249c-0.624-0.624-1.873-1.249-2.498-1.873
	c-1.249-0.624-1.873-1.249-3.122-2.498c-0.624-0.624-1.249-1.249-1.873-1.249c-1.249-1.249-2.498-1.873-3.746-3.122l-0.624-0.624
	c4.371-4.371,9.366-8.117,14.985-10.615c3.746,11.863,8.741,21.229,15.61,27.473h-0.624
	C254.127,431.454,253.502,430.829,252.254,430.829z M225.405,314.693c1.249-1.249,3.122-2.498,4.371-3.746l0.624-0.624
	c1.249-1.249,3.122-2.498,4.995-3.122l0.624-0.624c1.873-1.249,3.122-1.873,4.995-3.122c0,0,0.624,0,0.624-0.624
	c1.873-0.624,3.122-1.873,4.995-2.498c0,0,0.624,0,0.624-0.624c1.873-0.624,3.746-1.249,5.62-1.873h0.624
	c0.624,0,1.249,0,1.249-0.624c-6.244,6.244-11.863,15.61-15.61,27.473C234.771,322.81,229.776,319.063,225.405,314.693
	L225.405,314.693z M292.839,298.459c1.873,0.624,3.746,1.249,5.62,1.873c0,0,0.624,0,0.624,0.624
	c1.873,0.624,3.746,1.249,4.995,2.498c0,0,0.624,0,0.624,0.624c1.873,0.624,3.122,1.873,4.995,3.122l0.624,0.624
	c1.873,1.249,3.122,1.873,4.995,3.122l0.624,0.624c1.249,1.249,3.122,2.498,4.371,3.746l0,0c-4.371,4.371-9.366,8.117-14.985,10.615
	c-3.746-11.863-8.741-21.229-15.61-27.473c0.624,0,1.249,0,1.249,0.624C292.215,298.459,292.839,298.459,292.839,298.459z
	 M311.571,362.146c0-11.239-1.873-21.229-3.746-30.595c6.244-3.122,11.863-7.493,16.859-12.488
	c10.615,11.863,16.859,26.849,17.483,43.083H311.571z M275.98,295.961c9.99,1.873,19.356,14.361,24.976,32.468
	c-7.493,3.122-16.234,4.995-24.976,5.62V295.961z M270.361,295.961v38.088c-8.741-0.624-16.859-2.498-24.976-5.62
	C251.005,310.322,259.746,297.834,270.361,295.961z M270.361,339.668v22.478H240.39c0-9.99,1.249-19.356,3.746-28.098
	C252.254,337.171,260.995,339.668,270.361,339.668z M270.361,367.766v22.478c-9.366,0.624-18.107,2.498-26.224,5.62
	c-2.498-8.741-3.746-18.107-3.746-28.098H270.361z M270.361,395.863v38.088c-9.99-1.873-19.356-14.361-24.976-32.468
	C252.878,398.361,261.62,396.488,270.361,395.863z M275.98,433.951v-38.088c8.741,0.624,16.859,2.498,24.976,5.62
	C295.337,418.966,285.971,431.454,275.98,433.951z M275.98,390.244v-22.478h29.971c0,9.99-1.249,19.356-3.746,28.098
	C294.088,392.117,285.346,390.244,275.98,390.244z M275.98,362.146v-22.478c9.366-0.624,18.107-2.498,26.224-5.62
	c1.873,8.741,3.122,18.107,3.746,28.098H275.98z M238.517,331.551c-2.498,9.366-3.746,19.356-3.746,30.595h-30.595
	c0.624-16.234,6.868-31.22,17.483-43.083C226.654,324.059,232.273,328.429,238.517,331.551z M234.771,367.766
	c0,11.239,1.873,21.229,3.746,30.595c-6.244,3.122-11.863,7.493-16.859,12.488c-9.99-11.239-16.859-26.224-17.483-43.083H234.771z
	 M307.824,398.361c2.498-9.366,3.746-19.356,3.746-30.595h30.595c-0.624,16.234-6.868,31.22-17.483,43.083
	C319.688,405.854,314.068,401.483,307.824,398.361z"/>
<g>
</g>
<g>
</g>
<g>
</g>
<g>
</g>
<g>
</g>
<g>
</g>
<g>
</g>
<g>
</g>
<g>
</g>
<g>
</g>
<g>
</g>
<g>
</g>
<g>
</g>
<g>
</g>
<g>
</g>
</svg>
