<?xml version="1.0" encoding="iso-8859-1"?>
<!-- Generator: Adobe Illustrator 19.0.0, SVG Export Plug-In . SVG Version: 6.00 Build 0)  -->
<svg version="1.1" id="Capa_1" xmlns="http://www.w3.org/2000/svg" xmlns:xlink="http://www.w3.org/1999/xlink" x="0px" y="0px"
	 viewBox="0 0 468.293 468.293" style="enable-background:new 0 0 468.293 468.293;" xml:space="preserve">
<rect x="48.028" y="337.483" style="fill:#FCD462;" width="372.012" height="130.791"/>
<g>
	<rect x="142.348" y="337.483" style="fill:#F6C358;" width="183.396" height="130.791"/>
	<rect x="48.028" y="319.288" style="fill:#F6C358;" width="372.012" height="18.213"/>
</g>
<path style="fill:#31978C;" d="M386.973,18.126h-13.275l4.92-16.867c0.489-1.676,2.861-1.681,3.357-0.007L386.973,18.126z"/>
<rect x="363.345" y="43.92" style="fill:#F6C358;" width="33.986" height="40.929"/>
<path style="fill:#44C4A1;" d="M397.327,43.917h-33.982V32.589c0-9.384,7.607-16.991,16.991-16.991l0,0
	c9.384,0,16.991,7.607,16.991,16.991V43.917z"/>
<g>
	<rect x="340.605" y="159.781" style="fill:#FCD462;" width="79.46" height="159.494"/>
	<path style="fill:#FCD462;" d="M420.065,141.324h-79.458v-22.751c0-21.942,17.787-39.729,39.729-39.729h0
		c21.942,0,39.729,17.787,39.729,39.729V141.324z"/>
</g>
<g>
	<polygon style="fill:#F6C358;" points="424.725,214.119 335.947,214.119 325.745,195.649 434.927,195.649 	"/>
	<polygon style="fill:#F6C358;" points="424.725,268.445 335.947,268.445 325.745,249.975 434.927,249.975 	"/>
</g>
<path style="fill:#27A2DB;" d="M367.093,145.931h-26.486v-27.212c0-7.314,5.929-13.243,13.243-13.243h0
	c7.314,0,13.243,5.929,13.243,13.243V145.931z"/>
<path style="fill:#2D93BA;" d="M393.579,145.931h-26.486v-27.212c0-7.314,5.929-13.243,13.243-13.243l0,0
	c7.314,0,13.243,5.929,13.243,13.243V145.931z"/>
<path style="fill:#27A2DB;" d="M420.065,145.931h-26.486v-27.212c0-7.314,5.929-13.243,13.243-13.243h0
	c7.314,0,13.243,5.929,13.243,13.243V145.931z"/>
<polygon style="fill:#F6C358;" points="424.725,159.794 335.947,159.794 325.745,141.324 434.927,141.324 "/>
<path style="fill:#31978C;" d="M94.594,18.126H81.319l4.92-16.867c0.489-1.676,2.861-1.681,3.357-0.007L94.594,18.126z"/>
<rect x="70.968" y="43.92" style="fill:#F6C358;" width="33.986" height="40.929"/>
<path style="fill:#44C4A1;" d="M104.948,43.917H70.966V32.589c0-9.384,7.607-16.991,16.991-16.991h0
	c9.384,0,16.991,7.607,16.991,16.991V43.917z"/>
<g>
	<rect x="48.228" y="159.781" style="fill:#FCD462;" width="79.46" height="159.494"/>
	<path style="fill:#FCD462;" d="M127.686,141.324H48.228v-22.751c0-21.942,17.787-39.729,39.729-39.729h0
		c21.942,0,39.729,17.787,39.729,39.729V141.324z"/>
</g>
<g>
	<polygon style="fill:#F6C358;" points="132.346,214.119 43.568,214.119 33.366,195.649 142.548,195.649 	"/>
	<polygon style="fill:#F6C358;" points="132.346,268.445 43.568,268.445 33.366,249.975 142.548,249.975 	"/>
</g>
<path style="fill:#27A2DB;" d="M74.714,145.931H48.228v-27.212c0-7.314,5.929-13.243,13.243-13.243h0
	c7.314,0,13.243,5.929,13.243,13.243V145.931z"/>
<path style="fill:#2D93BA;" d="M101.2,145.931H74.714v-27.212c0-7.314,5.929-13.243,13.243-13.243h0
	c7.314,0,13.243,5.929,13.243,13.243V145.931z"/>
<path style="fill:#27A2DB;" d="M127.686,145.931H101.2v-27.212c0-7.314,5.929-13.243,13.243-13.243h0
	c7.314,0,13.243,5.929,13.243,13.243V145.931z"/>
<polygon style="fill:#F6C358;" points="132.346,159.794 43.568,159.794 33.366,141.324 142.548,141.324 "/>
<polygon style="fill:#DC8744;" points="341.232,319.291 126.862,319.291 234.047,237.617 "/>
<polygon style="fill:#F6C358;" points="156.25,307.961 234.049,252.9 311.843,307.961 "/>
<g>
	<path style="fill:#DC8744;" d="M397.143,468.292h-48.475V399.11c0-13.386,10.852-24.238,24.238-24.238h0
		c13.386,0,24.238,10.852,24.238,24.238V468.292z"/>
	<path style="fill:#DC8744;" d="M119.427,468.292H70.951V399.11c0-13.386,10.852-24.238,24.238-24.238h0
		c13.386,0,24.238,10.852,24.238,24.238V468.292z"/>
	<path style="fill:#DC8744;" d="M280.967,468.292h-93.84v-59.426c0-25.913,21.007-46.92,46.92-46.92h0
		c25.913,0,46.92,21.007,46.92,46.92V468.292z"/>
</g>
<path style="fill:#64798A;" d="M200.88,415.744c0-25.913,21.007-46.92,46.92-46.92c4.765,0,9.358,0.722,13.691,2.042
	c-7.722-5.588-17.184-8.919-27.445-8.919c-25.913,0-46.92,21.007-46.92,46.921v59.425h13.754V415.744z"/>
<g>
</g>
<g>
</g>
<g>
</g>
<g>
</g>
<g>
</g>
<g>
</g>
<g>
</g>
<g>
</g>
<g>
</g>
<g>
</g>
<g>
</g>
<g>
</g>
<g>
</g>
<g>
</g>
<g>
</g>
</svg>
