<?xml version="1.0" encoding="iso-8859-1"?>
<!-- Generator: Adobe Illustrator 19.0.0, SVG Export Plug-In . SVG Version: 6.00 Build 0)  -->
<svg version="1.1" id="Capa_1" xmlns="http://www.w3.org/2000/svg" xmlns:xlink="http://www.w3.org/1999/xlink" x="0px" y="0px"
	 viewBox="0 0 468.293 468.293" style="enable-background:new 0 0 468.293 468.293;" xml:space="preserve">
<path style="fill:#64798A;" d="M175.454,108.02V78.673c0-1.873,1.873-3.746,3.746-3.746h109.268c1.873,0,3.746,1.873,3.746,3.746
	v29.346h23.727V78.673c0-14.985-12.488-27.473-27.473-27.473H179.824c-14.985,0-27.473,12.488-27.473,27.473v29.346H175.454z"/>
<path style="fill:#27A2DB;" d="M468.293,120.507v280.976c0,8.741-6.868,15.61-15.61,15.61H15.61c-8.741,0-15.61-6.868-15.61-15.61
	V120.507c0-8.741,6.868-15.61,15.61-15.61h437.073C461.424,104.898,468.293,111.766,468.293,120.507z"/>
<g>
	<path style="fill:#E56353;" d="M468.293,348.41v53.073c0,8.741-6.868,15.61-15.61,15.61H399.61
		C399.61,379.005,430.205,348.41,468.293,348.41z"/>
	<path style="fill:#E56353;" d="M468.293,120.507v53.073c-38.088,0-68.683-30.595-68.683-68.683h53.073
		C461.424,104.898,468.293,111.766,468.293,120.507z"/>
	<path style="fill:#E56353;" d="M68.683,417.093H15.61c-8.741,0-15.61-6.868-15.61-15.61V348.41
		C38.088,348.41,68.683,379.005,68.683,417.093z"/>
	<path style="fill:#E56353;" d="M68.683,104.898c0,38.088-30.595,68.683-68.683,68.683v-53.073c0-8.741,6.868-15.61,15.61-15.61
		H68.683z"/>
</g>
<path style="fill:#FCD462;" d="M302.829,246.01l-58.068,58.068l-58.068-58.068c-16.234-16.234-16.234-42.459,0-58.068
	c16.234-16.234,42.459-16.234,58.068,0c16.234-16.234,41.834-16.234,58.068,0C318.439,203.551,318.439,229.776,302.829,246.01z"/>
<path style="fill:#EBF0F3;" d="M121.132,191.063l-1.873,10.615l59.941,84.917c3.122,4.371,1.873,10.615-2.498,14.361l-61.815,43.083
	c-4.371,3.122-10.615,1.873-14.361-2.498l-58.693-83.044c-3.122-4.371-1.873-10.615,2.498-14.361L121.132,191.063z"/>
<path style="fill:#D5D6DB;" d="M131.746,192.937l7.493,10.615l-12.488,8.741l-7.493-10.615c-2.498-3.746-1.873-8.117,1.873-10.615
	C124.254,188.566,129.249,189.19,131.746,192.937z"/>
<rect x="328.108" y="214.252" transform="matrix(-0.3441 0.9389 -0.9389 -0.3441 741.7623 -11.6085)" style="fill:#44C4A1;" width="93.656" height="78.046"/>
<rect x="383.259" y="176.029" transform="matrix(-0.3441 0.9389 -0.9389 -0.3441 725.0339 -76.3674)" style="fill:#3EA69B;" width="11.863" height="78.046"/>
<g>
	<circle style="fill:#E1E6E9;" cx="440.819" cy="132.371" r="11.863"/>
	<circle style="fill:#E1E6E9;" cx="440.819" cy="389.62" r="11.863"/>
	<circle style="fill:#E1E6E9;" cx="27.473" cy="132.371" r="11.863"/>
	<circle style="fill:#E1E6E9;" cx="27.473" cy="389.62" r="11.863"/>
</g>
<g>
</g>
<g>
</g>
<g>
</g>
<g>
</g>
<g>
</g>
<g>
</g>
<g>
</g>
<g>
</g>
<g>
</g>
<g>
</g>
<g>
</g>
<g>
</g>
<g>
</g>
<g>
</g>
<g>
</g>
</svg>
