<?xml version="1.0" encoding="iso-8859-1"?>
<!-- Generator: Adobe Illustrator 19.0.0, SVG Export Plug-In . SVG Version: 6.00 Build 0)  -->
<svg version="1.1" id="Capa_1" xmlns="http://www.w3.org/2000/svg" xmlns:xlink="http://www.w3.org/1999/xlink" x="0px" y="0px"
	 viewBox="0 0 468.293 468.293" style="enable-background:new 0 0 468.293 468.293;" xml:space="preserve">
<path style="fill:#3A556A;" d="M462.907,219.35c0.79,3.209-1.14,6.496-4.267,7.295l-14.05,2.92l-13.623-80.863l11.791-1.274
	c3.136-0.79,6.34,1.175,7.118,4.384L462.907,219.35z"/>
<path style="fill:#E56353;" d="M430.271,130.557c0,0,8.53-3.144,8.53-18.045c0,0-164.658,0-241.077,0
	c-14.098,0-31.595-0.596-48.051,29.807c-14.145,26.114-34.847,53.614-35.832,54.62c-82.254,0-102.416,44.293-107.664,49.446
	c-6.116,6.012-6.428,34.85-6.085,51.233c0.133,6.376,5.363,11.442,11.74,11.442h4.205H438.81c0,0,17.052,0,17.052-27.461
	C455.854,253.809,430.271,130.557,430.271,130.557z"/>
<path style="fill:#CE412D;" d="M311.549,314.724c0,3.365-2.807,6.12-6.224,6.12H167.002c-3.429,0-6.224-2.756-6.224-6.12v-12.228
	c0-3.369,2.794-6.116,6.224-6.116h138.323c3.416,0,6.224,2.747,6.224,6.116V314.724z"/>
<path style="fill:#3A556A;" d="M468.293,315.167c0,3.365-2.807,6.12-6.224,6.12H449.63c-3.429,0-6.224-2.756-6.224-6.12v-36.678
	c0-3.365,2.794-6.112,6.224-6.112h12.439c3.416,0,6.224,2.747,6.224,6.112V315.167z"/>
<path style="fill:#D6EEF0;" d="M0.481,272.377c0,0-0.251-16.275,3.023-19.95c3.473-3.892,12.05-5.446,19.898-3.952
	C29.657,249.654,20.569,265.894,0.481,272.377z"/>
<path style="fill:#3A556A;" d="M339.995,199.858c0,4.457,3.231,8.107,7.191,8.107h61.142c3.952,0,6.535-3.563,5.736-7.926
	l-10.448-57.078c-0.769-4.371-4.634-7.947-8.591-7.947h-47.839c-3.961,0-7.191,3.65-7.191,8.107V199.858z"/>
<path style="fill:#64798A;" d="M339.995,199.858c0,4.457,3.231,8.107,7.191,8.107h61.142c3.952,0,6.535-3.563,5.736-7.926
	l-10.448-57.078c-0.769-4.371-4.634-7.947-8.591-7.947L339.995,199.858z"/>
<path style="fill:#3A556A;" d="M245.835,143.117c0-4.457-3.308-8.107-7.343-8.107h-40.406c-4.03,0-8.902,3.218-10.798,7.153
	l-29.707,58.732c-1.961,3.887-0.255,7.07,3.775,7.07h77.127c4.034,0,7.343-3.65,7.343-8.107v-56.741H245.835z"/>
<path style="fill:#64798A;" d="M245.835,143.117c0-4.457-3.308-8.107-7.343-8.107l-80.911,65.885
	c-1.961,3.887-0.255,7.07,3.775,7.07h77.127c4.034,0,7.343-3.65,7.343-8.107v-56.741H245.835z"/>
<path style="fill:#3A556A;" d="M311.615,207.965h-37.4c-6.897,0-12.488-5.591-12.488-12.488v-47.975
	c0-6.897,5.591-12.488,12.488-12.488h37.4c6.897,0,12.488,5.591,12.488,12.488v47.975
	C324.102,202.374,318.511,207.965,311.615,207.965z"/>
<path style="fill:#64798A;" d="M311.615,207.965h-37.4c-6.897,0-12.488-5.591-12.488-12.488l49.887-60.463
	c6.897,0,12.488,5.591,12.488,12.488v47.975C324.102,202.374,318.511,207.965,311.615,207.965z"/>
<path style="fill:#3A556A;" d="M375.003,250.1c29.183,0,52.841,23.659,52.841,52.839c0,29.183-23.658,52.843-52.841,52.843
	s-52.841-23.659-52.841-52.843C322.162,273.76,345.821,250.1,375.003,250.1z"/>
<path style="fill:#E1E6E9;" d="M375.003,267.714c19.452,0,35.227,15.771,35.227,35.225c0,19.459-15.775,35.23-35.227,35.23
	c-19.457,0-35.227-15.771-35.227-35.23C339.776,283.485,355.546,267.714,375.003,267.714z"/>
<g>
	<polygon style="fill:#64798A;" points="380.894,288.523 369.113,288.523 372.12,276.742 377.886,276.742 	"/>
	<polygon style="fill:#64798A;" points="380.894,316.942 369.113,316.942 372.12,328.723 377.886,328.723 	"/>
	<polygon style="fill:#64798A;" points="389.215,296.85 380.885,288.519 391.342,282.316 395.419,286.393 	"/>
	<polygon style="fill:#64798A;" points="369.12,316.943 360.789,308.613 354.585,319.07 358.662,323.146 	"/>
	<polygon style="fill:#64798A;" points="389.212,308.621 389.212,296.841 400.993,299.849 400.993,305.614 	"/>
	<polygon style="fill:#64798A;" points="360.793,308.619 360.793,296.838 349.012,299.845 349.012,305.61 	"/>
	<polygon style="fill:#64798A;" points="380.885,316.941 389.216,308.612 395.419,319.07 391.342,323.146 	"/>
	<polygon style="fill:#64798A;" points="360.792,296.845 369.123,288.516 358.666,282.312 354.589,286.388 	"/>
</g>
<g>
	
		<rect x="372.64" y="275.081" transform="matrix(-0.9239 -0.3827 0.3827 -0.9239 605.5037 726.3177)" style="fill:#E1E6E9;" width="4.695" height="55.714"/>
	
		<rect x="372.617" y="275.04" transform="matrix(-0.3822 -0.9241 0.9241 -0.3822 238.3848 765.166)" style="fill:#E1E6E9;" width="4.683" height="55.72"/>
	<polygon style="fill:#E1E6E9;" points="348.384,294.349 350.186,290.038 401.598,311.365 399.796,315.676 	"/>
	<polygon style="fill:#E1E6E9;" points="362.279,278.081 366.604,276.312 387.783,327.586 383.457,329.355 	"/>
</g>
<path style="fill:#3A556A;" d="M97.323,250.1c29.183,0,52.841,23.659,52.841,52.839c0,29.183-23.658,52.843-52.841,52.843
	s-52.841-23.659-52.841-52.843C44.483,273.76,68.141,250.1,97.323,250.1z"/>
<path style="fill:#E1E6E9;" d="M97.323,267.714c19.452,0,35.227,15.771,35.227,35.225c0,19.459-15.775,35.23-35.227,35.23
	c-19.457,0-35.227-15.771-35.227-35.23C62.096,283.485,77.866,267.714,97.323,267.714z"/>
<g>
	<polygon style="fill:#64798A;" points="103.214,288.523 91.433,288.523 94.441,276.742 100.206,276.742 	"/>
	<polygon style="fill:#64798A;" points="103.214,316.942 91.433,316.942 94.441,328.723 100.206,328.723 	"/>
	<polygon style="fill:#64798A;" points="111.535,296.85 103.205,288.519 113.663,282.316 117.739,286.393 	"/>
	<polygon style="fill:#64798A;" points="91.44,316.943 83.11,308.613 76.906,319.07 80.982,323.146 	"/>
	<polygon style="fill:#64798A;" points="111.532,308.621 111.532,296.841 123.313,299.849 123.313,305.614 	"/>
	<polygon style="fill:#64798A;" points="83.114,308.619 83.114,296.838 71.333,299.845 71.333,305.61 	"/>
	<polygon style="fill:#64798A;" points="103.206,316.941 111.536,308.612 117.739,319.07 113.662,323.146 	"/>
	<polygon style="fill:#64798A;" points="83.112,296.845 91.443,288.516 80.986,282.312 76.91,286.388 	"/>
</g>
<g>
	
		<rect x="94.974" y="275.085" transform="matrix(-0.9239 -0.3827 0.3827 -0.9239 71.3051 620.0674)" style="fill:#E1E6E9;" width="4.695" height="55.714"/>
	
		<rect x="94.964" y="275.041" transform="matrix(-0.3822 -0.9241 0.9241 -0.3822 -145.4007 508.5984)" style="fill:#E1E6E9;" width="4.683" height="55.72"/>
	<polygon style="fill:#E1E6E9;" points="70.704,294.349 72.506,290.038 123.918,311.365 122.117,315.676 	"/>
	<polygon style="fill:#E1E6E9;" points="84.599,278.081 88.924,276.312 110.103,327.586 105.778,329.355 	"/>
</g>
<g>
</g>
<g>
</g>
<g>
</g>
<g>
</g>
<g>
</g>
<g>
</g>
<g>
</g>
<g>
</g>
<g>
</g>
<g>
</g>
<g>
</g>
<g>
</g>
<g>
</g>
<g>
</g>
<g>
</g>
</svg>
