<?xml version="1.0" encoding="iso-8859-1"?>
<!-- Generator: Adobe Illustrator 19.0.0, SVG Export Plug-In . SVG Version: 6.00 Build 0)  -->
<svg version="1.1" id="Capa_1" xmlns="http://www.w3.org/2000/svg" xmlns:xlink="http://www.w3.org/1999/xlink" x="0px" y="0px"
	 viewBox="0 0 464 464" style="enable-background:new 0 0 464 464;" xml:space="preserve">
<g>
	<path style="fill:#00F2A9;" d="M232,200c53.04,0,96-42.96,96-96c0-17.68-14.32-32-32-32H168c-17.68,0-32,14.32-32,32
		C136,157.04,178.96,200,232,200z"/>
	<path style="fill:#00F2A9;" d="M184,264c-8.84,0-16,7.16-16,16v64c0,8.84,7.16,16,16,16h96c8.84,0,16-7.16,16-16v-64
		c0-8.84-7.16-16-16-16H184z"/>
</g>
<g>
	<path style="fill:#322153;" d="M64,392c0,22.056,17.944,40,40,40h24.808c3.72,18.232,19.872,32,39.192,32h128
		c19.312,0,35.472-13.768,39.192-32H360c22.056,0,40-17.944,40-40V104c0-22.056-17.944-40-40-40h-24.808
		c-3.72-18.232-19.88-32-39.192-32h-24.808C267.472,13.768,251.312,0,232,0s-35.472,13.768-39.192,32H168
		c-19.312,0-35.472,13.768-39.192,32H104c-22.056,0-40,17.944-40,40V392z M146.408,130.936c1.672,2.424,3.424,4.8,5.288,7.072
		c0.136,0.16,0.28,0.312,0.416,0.472c1.784,2.136,3.664,4.184,5.608,6.176c0.472,0.48,0.944,0.968,1.424,1.44
		c2.08,2.04,4.224,4.016,6.464,5.88c0.344,0.288,0.704,0.552,1.048,0.832c2.032,1.648,4.128,3.208,6.28,4.704
		c0.512,0.36,1.024,0.72,1.544,1.072c2.424,1.616,4.912,3.136,7.472,4.544c0.512,0.28,1.032,0.536,1.552,0.816
		c2.304,1.224,4.656,2.36,7.056,3.408c0.488,0.208,0.96,0.44,1.448,0.648c2.72,1.136,5.496,2.144,8.328,3.056
		c0.64,0.208,1.288,0.392,1.936,0.584c2.632,0.792,5.304,1.488,8.024,2.072c0.344,0.072,0.672,0.168,1.016,0.24
		c2.968,0.6,6,1.04,9.056,1.384c0.72,0.08,1.44,0.144,2.16,0.216C225.656,175.8,228.8,176,232,176c3.2,0,6.344-0.2,9.472-0.48
		c0.72-0.064,1.44-0.136,2.16-0.216c3.056-0.344,6.088-0.784,9.056-1.384c0.336-0.072,0.672-0.16,1.008-0.232
		c2.728-0.584,5.4-1.28,8.04-2.072c0.64-0.192,1.28-0.376,1.92-0.576c2.832-0.904,5.616-1.92,8.344-3.056
		c0.48-0.2,0.944-0.424,1.416-0.632c2.416-1.056,4.784-2.2,7.096-3.424c0.504-0.264,1.016-0.52,1.512-0.792
		c2.568-1.416,5.064-2.936,7.496-4.56c0.504-0.336,1-0.696,1.504-1.04c2.168-1.504,4.288-3.08,6.336-4.744
		c0.336-0.272,0.68-0.528,1.008-0.8c2.248-1.872,4.408-3.848,6.488-5.896c0.472-0.464,0.928-0.936,1.392-1.408
		c1.96-2,3.856-4.064,5.656-6.216c0.128-0.152,0.256-0.288,0.384-0.44c1.88-2.28,3.624-4.656,5.312-7.096
		c0.384-0.56,0.768-1.128,1.144-1.696c0.416-0.624,0.856-1.224,1.256-1.856V352H144V127.376c0.392,0.624,0.832,1.224,1.24,1.84
		C145.624,129.792,146.016,130.368,146.408,130.936z M384,320h-48V176h48V320z M128,320H80V176h48V320z M80,392v-56h48v24v56h-24
		C90.768,416,80,405.232,80,392z M296,448H168c-13.232,0-24-10.768-24-24v-56h176v56C320,437.232,309.232,448,296,448z M360,416h-24
		v-56v-24h48v56C384,405.232,373.232,416,360,416z M384,104v56h-48V80h24C373.232,80,384,90.768,384,104z M232,16
		c10.416,0,19.216,6.712,22.528,16H209.48C212.784,22.712,221.584,16,232,16z M168,48h128c13.232,0,24,10.768,24,24
		c0,45.824-35.216,83.536-80,87.592V136c0-4.424-3.584-8-8-8s-8,3.576-8,8v23.592c-44.784-4.056-80-41.768-80-87.592
		C144,58.768,154.768,48,168,48z M104,80h24v80H80v-56C80,90.768,90.768,80,104,80z"/>
	<path style="fill:#322153;" d="M184,336h96c13.232,0,24-10.768,24-24v-64c0-13.232-10.768-24-24-24h-96c-13.232,0-24,10.768-24,24
		v64C160,325.232,170.768,336,184,336z M280,320h-96c-4.408,0-8-3.584-8-8v-40h112v40C288,316.416,284.416,320,280,320z M184,240h96
		c4.416,0,8,3.584,8,8v8H176v-8C176,243.584,179.592,240,184,240z"/>
</g>
<g>
</g>
<g>
</g>
<g>
</g>
<g>
</g>
<g>
</g>
<g>
</g>
<g>
</g>
<g>
</g>
<g>
</g>
<g>
</g>
<g>
</g>
<g>
</g>
<g>
</g>
<g>
</g>
<g>
</g>
</svg>
