<?xml version="1.0" encoding="iso-8859-1"?>
<!-- Generator: Adobe Illustrator 19.0.0, SVG Export Plug-In . SVG Version: 6.00 Build 0)  -->
<svg version="1.1" id="Capa_1" xmlns="http://www.w3.org/2000/svg" xmlns:xlink="http://www.w3.org/1999/xlink" x="0px" y="0px"
	 viewBox="0 0 487.939 487.939" style="enable-background:new 0 0 487.939 487.939;" xml:space="preserve">
<g>
	<polygon style="fill:#00F2A9;" points="51.969,487.939 147.969,391.939 147.969,39.939 51.969,135.939 	"/>
	<path style="fill:#00F2A9;" d="M371.009,422.979c16.24-28,32.96-60.96,32.96-79.04c0-35.36-28.64-64-64-64s-64,28.64-64,64
		c0,18.08,16.72,51.04,32.96,79.04c15.76,26.72,31.04,48.96,31.04,48.96S355.249,449.699,371.009,422.979z M307.969,343.939
		c0-17.68,14.32-32,32-32s32,14.32,32,32s-14.32,32-32,32S307.969,361.619,307.969,343.939z"/>
</g>
<g>
	<path style="fill:#322153;" d="M435.969,463.939c1.032,0,2.072-0.192,3.064-0.608c2.992-1.232,4.936-4.16,4.936-7.392v-352
		c0-2.128-0.84-4.16-2.344-5.656l-96-96c-0.088-0.088-0.2-0.136-0.288-0.216c-0.296-0.272-0.624-0.488-0.96-0.712
		c-0.336-0.232-0.672-0.448-1.04-0.624c-0.112-0.048-0.192-0.136-0.312-0.184c-0.232-0.096-0.472-0.104-0.712-0.176
		c-0.4-0.128-0.792-0.24-1.2-0.304c-0.392-0.056-0.776-0.064-1.168-0.056c-0.376,0-0.736,0-1.112,0.056
		c-0.424,0.064-0.824,0.184-1.232,0.312c-0.232,0.072-0.472,0.08-0.696,0.176c-0.112,0.048-0.2,0.136-0.304,0.184
		c-0.36,0.168-0.688,0.392-1.024,0.616c-0.336,0.224-0.672,0.448-0.968,0.72c-0.088,0.08-0.2,0.128-0.288,0.216l-90.352,90.336
		L153.625,2.283c-0.088-0.088-0.2-0.136-0.288-0.216c-0.296-0.272-0.632-0.496-0.968-0.72c-0.336-0.224-0.664-0.44-1.024-0.616
		c-0.112-0.056-0.2-0.144-0.312-0.184c-0.232-0.096-0.48-0.104-0.72-0.184c-0.392-0.12-0.784-0.24-1.192-0.304
		c-0.392-0.056-0.776-0.064-1.168-0.056c-0.376,0-0.736,0-1.112,0.056c-0.424,0.064-0.832,0.184-1.24,0.312
		c-0.232,0.072-0.464,0.08-0.688,0.176c-0.112,0.048-0.192,0.128-0.304,0.184c-0.368,0.176-0.704,0.4-1.048,0.624
		c-0.336,0.224-0.664,0.44-0.96,0.712c-0.088,0.08-0.208,0.128-0.288,0.216l-96,96c-1.504,1.496-2.344,3.528-2.344,5.656v352
		c0,3.232,1.944,6.16,4.936,7.392c0.992,0.416,2.032,0.608,3.064,0.608c2.08,0,4.128-0.816,5.656-2.344l90.344-90.344l90.344,90.344
		c0.072,0.072,0.168,0.4,0.24,0.464c0.688,0.64,1.456,1.88,2.352,1.88c0.008,0,0.008,0,0.008,0c0.976,0,2.008,0.608,3.048,0.608
		s2.088-0.608,3.056-0.608c0,0,0.008,0,0.016,0c0.904,0,1.664-1.24,2.352-1.88c0.072-0.064,0.168-0.24,0.24-0.312l57.672-57.752
		c12.296,20.392,23.392,36.632,26.08,40.528c1.504,2.168,3.96,3.432,6.584,3.432s5.088-1.296,6.584-3.464
		c2.688-3.896,13.784-20.184,26.08-40.568l57.672,57.672C431.841,463.131,433.889,463.939,435.969,463.939z M59.969,107.251l80-80
		v329.376l-80,80V107.251z M155.969,27.251l80,80v329.376l-80-80V27.251z M251.969,436.627V107.251l80-80v213.136
		c-1.544,0.168-3.048,0.456-4.56,0.728c-0.68,0.12-1.368,0.184-2.04,0.328c-2.24,0.464-4.432,1.032-6.592,1.696
		c-0.784,0.24-1.536,0.56-2.304,0.824c-1.376,0.48-2.76,0.944-4.096,1.504c-0.888,0.368-1.728,0.808-2.6,1.208
		c-1.176,0.544-2.36,1.08-3.504,1.688c-0.888,0.472-1.728,1-2.592,1.504c-1.072,0.632-2.152,1.256-3.192,1.936
		c-0.848,0.56-1.656,1.16-2.472,1.744c-1,0.72-1.992,1.44-2.952,2.208c-0.792,0.632-1.552,1.304-2.32,1.968
		c-0.92,0.8-1.832,1.616-2.704,2.456c-0.728,0.704-1.44,1.432-2.136,2.168c-0.84,0.88-1.664,1.784-2.456,2.704
		c-0.664,0.768-1.304,1.552-1.936,2.352c-0.76,0.96-1.488,1.944-2.2,2.944c-0.584,0.824-1.16,1.648-1.712,2.496
		c-0.68,1.04-1.312,2.104-1.936,3.184c-0.504,0.872-1,1.736-1.472,2.624c-0.584,1.12-1.12,2.264-1.648,3.424
		c-0.416,0.896-0.832,1.792-1.208,2.712c-0.496,1.208-0.92,2.448-1.352,3.688c-0.312,0.912-0.656,1.816-0.936,2.744
		c-0.4,1.32-0.712,2.672-1.04,4.024c-0.216,0.888-0.464,1.768-0.64,2.664c-0.304,1.52-0.504,3.064-0.704,4.616
		c-0.104,0.768-0.248,1.52-0.328,2.304c-0.24,2.336-0.368,4.712-0.368,7.112c0,2.168,0.24,4.576,0.632,7.12
		c0.088,0.544,0.232,1.128,0.328,1.68c0.376,2.08,0.848,4.248,1.464,6.568c0.152,0.568,0.344,1.168,0.512,1.744
		c0.656,2.304,1.416,4.704,2.304,7.24c0.256,0.72,0.536,1.456,0.8,2.184c0.84,2.28,1.744,4.632,2.76,7.096
		c0.528,1.288,1.096,2.592,1.664,3.896c0.792,1.808,1.576,3.624,2.456,5.528c1.176,2.568,2.424,5.152,3.704,7.76
		c0.344,0.688,0.656,1.352,1.008,2.056c4.152,8.336,8.688,16.728,13.312,24.84L251.969,436.627z M339.969,425.635
		c-12.52-18.936-31.104-48.976-43.384-74.776c-0.32-0.672-0.6-1.288-0.896-1.936c-0.704-1.504-1.376-2.984-2.032-4.448
		c-0.472-1.064-0.936-2.112-1.368-3.12c-0.464-1.08-0.896-2.136-1.32-3.192c-0.704-1.72-1.344-3.36-1.92-4.912
		c-0.32-0.864-0.64-1.72-0.936-2.568c-0.352-1-0.696-1.992-0.992-2.912c-0.456-1.416-0.856-2.776-1.224-4.112
		c-0.192-0.688-0.36-1.36-0.52-2c-0.352-1.456-0.656-2.864-0.872-4.2c-0.056-0.336-0.112-0.664-0.16-0.984
		c-0.232-1.616-0.376-3.144-0.376-4.536c0-30.872,25.128-56,56-56s56,25.128,56,56c0,1.392-0.144,2.92-0.376,4.536
		c-0.048,0.312-0.104,0.64-0.16,0.968c-0.224,1.344-0.52,2.76-0.88,4.224c-0.152,0.624-0.32,1.272-0.504,1.936
		c-0.368,1.352-0.776,2.752-1.248,4.192c-0.28,0.88-0.616,1.824-0.944,2.768s-0.68,1.904-1.048,2.88
		c-0.504,1.36-1.064,2.776-1.664,4.264c-0.504,1.248-1.024,2.504-1.576,3.792c-0.384,0.896-0.792,1.816-1.2,2.752
		c-0.76,1.712-1.544,3.448-2.376,5.208c-0.192,0.416-0.368,0.808-0.568,1.224C371.153,376.523,352.513,406.659,339.969,425.635z
		 M427.969,436.627l-46.952-46.96c4.624-8.104,9.152-16.488,13.304-24.824c0.36-0.72,0.68-1.4,1.032-2.112
		c1.272-2.592,2.512-5.168,3.68-7.72c0.88-1.904,1.672-3.72,2.456-5.536c0.568-1.304,1.136-2.608,1.664-3.896
		c1.024-2.464,1.92-4.816,2.76-7.096c0.272-0.728,0.552-1.464,0.8-2.184c0.896-2.544,1.648-4.944,2.304-7.256
		c0.168-0.576,0.352-1.168,0.504-1.728c0.624-2.328,1.096-4.504,1.464-6.584c0.104-0.552,0.248-1.136,0.328-1.672
		c0.416-2.544,0.656-4.952,0.656-7.12c0-2.4-0.128-4.776-0.36-7.112c-0.08-0.776-0.224-1.528-0.328-2.304
		c-0.208-1.552-0.408-3.096-0.704-4.616c-0.176-0.904-0.424-1.776-0.64-2.664c-0.32-1.352-0.64-2.704-1.04-4.024
		c-0.28-0.928-0.616-1.824-0.928-2.736c-0.432-1.24-0.856-2.48-1.352-3.688c-0.376-0.92-0.8-1.816-1.208-2.712
		c-0.528-1.152-1.064-2.296-1.648-3.416c-0.464-0.888-0.968-1.76-1.472-2.624c-0.624-1.08-1.256-2.144-1.936-3.184
		c-0.552-0.848-1.12-1.672-1.712-2.496c-0.712-1-1.44-1.984-2.2-2.944c-0.632-0.8-1.272-1.584-1.936-2.352
		c-0.8-0.928-1.616-1.824-2.456-2.704c-0.704-0.736-1.408-1.464-2.136-2.168c-0.88-0.848-1.784-1.656-2.704-2.456
		c-0.768-0.664-1.528-1.336-2.32-1.968c-0.96-0.768-1.952-1.488-2.952-2.208c-0.816-0.592-1.632-1.192-2.472-1.744
		c-1.04-0.688-2.12-1.312-3.192-1.944c-0.864-0.504-1.704-1.032-2.584-1.496c-1.144-0.608-2.328-1.144-3.504-1.688
		c-0.872-0.4-1.712-0.84-2.6-1.208c-1.336-0.56-2.72-1.024-4.088-1.504c-0.776-0.272-1.528-0.584-2.312-0.824
		c-2.16-0.664-4.352-1.232-6.592-1.696c-0.672-0.136-1.368-0.208-2.04-0.328c-1.512-0.264-3.024-0.552-4.56-0.728V27.251l80,80
		v329.376H427.969z"/>
	<path style="fill:#322153;" d="M339.969,271.939c-22.056,0-40,17.944-40,40s17.944,40,40,40s40-17.944,40-40
		S362.025,271.939,339.969,271.939z M339.969,335.939c-13.232,0-24-10.768-24-24s10.768-24,24-24s24,10.768,24,24
		S353.201,335.939,339.969,335.939z"/>
</g>
<g>
</g>
<g>
</g>
<g>
</g>
<g>
</g>
<g>
</g>
<g>
</g>
<g>
</g>
<g>
</g>
<g>
</g>
<g>
</g>
<g>
</g>
<g>
</g>
<g>
</g>
<g>
</g>
<g>
</g>
</svg>
