<?xml version="1.0" encoding="iso-8859-1"?>
<!-- Generator: Adobe Illustrator 19.0.0, SVG Export Plug-In . SVG Version: 6.00 Build 0)  -->
<svg version="1.1" id="Capa_1" xmlns="http://www.w3.org/2000/svg" xmlns:xlink="http://www.w3.org/1999/xlink" x="0px" y="0px"
	 viewBox="0 0 464 464" style="enable-background:new 0 0 464 464;" xml:space="preserve">
<ellipse style="fill:#00F2A9;" cx="232.022" cy="263.987" rx="95.999" ry="95.999"/>
<g>
	<path style="fill:#322153;" d="M457.936,224.24L338.32,194.336l29.264-87.808c0.96-2.872,0.208-6.048-1.928-8.184
		s-5.32-2.904-8.184-1.928l-87.808,29.264L239.76,6.064C238.864,2.504,235.672,0,232,0s-6.864,2.504-7.76,6.064L194.336,125.68
		l-87.808-29.264c-2.88-0.976-6.048-0.208-8.184,1.928s-2.888,5.312-1.928,8.184l29.264,87.808L6.064,224.24
		C2.496,225.136,0,228.328,0,232s2.496,6.864,6.064,7.76l119.616,29.904l-29.264,87.808c-0.96,2.872-0.208,6.048,1.928,8.184
		s5.304,2.904,8.184,1.928l87.808-29.264l29.904,119.616c0.896,3.568,4.088,6.064,7.76,6.064s6.864-2.504,7.76-6.064l29.904-119.616
		l87.808,29.264c2.864,0.976,6.048,0.208,8.184-1.928s2.888-5.312,1.928-8.184l-29.264-87.808l119.616-29.904
		c3.56-0.896,6.064-4.088,6.064-7.76S461.496,225.136,457.936,224.24z M324.632,184.824c-4.832-9.504-11.16-18.424-19.088-26.36
		s-16.864-14.264-26.36-19.088l68.176-22.72L324.632,184.824z M169.776,294.224c-34.312-34.312-34.312-90.144,0-124.456
		c17.16-17.16,39.696-25.736,62.224-25.736s45.072,8.576,62.224,25.736c34.312,34.312,34.312,90.144,0,124.456
		S204.088,328.536,169.776,294.224z M232,40.984l22.4,89.584c-14.752-3.232-30.048-3.232-44.8,0L232,40.984z M116.648,116.648
		l68.176,22.72c-9.504,4.832-18.424,11.16-26.36,19.088s-14.264,16.864-19.088,26.36L116.648,116.648z M40.984,232l89.584-22.4
		c-3.232,14.752-3.232,30.048,0,44.8L40.984,232z M139.368,279.176c4.832,9.504,11.16,18.424,19.088,26.36
		c7.936,7.936,16.856,14.264,26.36,19.088l-68.176,22.72L139.368,279.176z M232,423.016l-22.4-89.576
		c7.376,1.616,14.88,2.52,22.4,2.52s15.024-0.896,22.4-2.52L232,423.016z M347.352,347.352l-68.176-22.72
		c9.504-4.832,18.424-11.16,26.36-19.088c7.936-7.936,14.264-16.864,19.088-26.36L347.352,347.352z M333.432,254.4
		c3.232-14.752,3.232-30.048,0-44.8l89.584,22.4L333.432,254.4z"/>
	<path style="fill:#322153;" d="M271.6,181.088l-17.544,17.544C247.568,194.328,239.968,192,232,192
		c-10.688,0-20.736,4.168-28.28,11.72C196.168,211.264,192,221.312,192,232c0,7.968,2.328,15.568,6.632,22.056L181.088,271.6
		c-3.128,3.128-3.128,8.184,0,11.312c1.56,1.56,3.608,2.344,5.656,2.344s4.096-0.784,5.656-2.344l17.544-17.544
		C216.432,269.672,224.032,272,232,272c10.688,0,20.736-4.168,28.28-11.72C267.832,252.736,272,242.688,272,232
		c0-7.968-2.328-15.568-6.632-22.056l17.544-17.544c3.128-3.128,3.128-8.184,0-11.312S274.728,177.96,271.6,181.088z
		 M248.968,248.968c-9.064,9.064-24.872,9.064-33.936,0C210.496,244.44,208,238.416,208,232s2.496-12.44,7.032-16.968
		C219.56,210.504,225.584,208,232,208c6.416,0,12.44,2.504,16.968,7.032C253.496,219.56,256,225.584,256,232
		C256,238.416,253.496,244.44,248.968,248.968z"/>
</g>
<g>
</g>
<g>
</g>
<g>
</g>
<g>
</g>
<g>
</g>
<g>
</g>
<g>
</g>
<g>
</g>
<g>
</g>
<g>
</g>
<g>
</g>
<g>
</g>
<g>
</g>
<g>
</g>
<g>
</g>
</svg>
