<?xml version="1.0" encoding="iso-8859-1"?>
<!-- Generator: Adobe Illustrator 19.0.0, SVG Export Plug-In . SVG Version: 6.00 Build 0)  -->
<svg version="1.1" id="Capa_1" xmlns="http://www.w3.org/2000/svg" xmlns:xlink="http://www.w3.org/1999/xlink" x="0px" y="0px"
	 viewBox="0 0 464 464" style="enable-background:new 0 0 464 464;" xml:space="preserve">
<path style="fill:#00F2A9;" d="M232,216c-70.696,0-128,57.304-128,128h256C360,273.304,302.696,216,232,216z"/>
<g>
	<path style="fill:#322153;" d="M456,112h-25.224l-14.888-89.312C415.248,18.832,411.912,16,408,16s-7.248,2.832-7.888,6.688
		L385.224,112H360c-4.424,0-8,3.576-8,8s3.576,8,8,8h24v176h-16.408C363.576,235.4,308.6,180.424,240,176.408v-17.864
		c3.272-1.152,6.36-2.96,8.968-5.568c3.128-3.128,3.128-8.184,0-11.312s-8.184-3.128-11.312,0s-8.184,3.128-11.312,0
		c-3.12-3.12-3.12-8.192,0-11.312c3.128-3.128,3.128-8.184,0-11.312s-8.184-3.128-11.312,0c-9.36,9.36-9.36,24.576,0,33.936
		c2.616,2.616,5.696,4.416,8.968,5.568v17.864C155.4,180.424,100.424,235.4,96.408,304H80V128h24c4.424,0,8-3.576,8-8s-3.576-8-8-8
		H78.776L63.888,22.688C63.248,18.832,59.912,16,56,16s-7.248,2.832-7.888,6.688L33.224,112H8c-4.424,0-8,3.576-8,8s3.576,8,8,8h24
		v312c0,4.424,3.576,8,8,8h160h64h160c4.424,0,8-3.576,8-8V128h24c4.424,0,8-3.576,8-8S460.424,112,456,112z M408,72.664
		L414.552,112H401.44L408,72.664z M232,192c63.48,0,115.6,49.544,119.736,112H112.264C116.4,241.544,168.52,192,232,192z M56,72.664
		L62.552,112H49.448L56,72.664z M208,432v-24c0-13.232,10.768-24,24-24s24,10.768,24,24v24H208z M416,432H272v-24
		c0-22.056-17.944-40-40-40s-40,17.944-40,40v24H48V128h16v184c0,4.424,3.576,8,8,8h32h256h32c4.424,0,8-3.576,8-8V128h16V432z"/>
	<path style="fill:#322153;" d="M104,336c-4.424,0-8,3.576-8,8v32c0,4.424,3.576,8,8,8c4.424,0,8-3.576,8-8v-32
		C112,339.576,108.424,336,104,336z"/>
	<path style="fill:#322153;" d="M168,336c-4.424,0-8,3.576-8,8v32c0,4.424,3.576,8,8,8s8-3.576,8-8v-32
		C176,339.576,172.424,336,168,336z"/>
	<path style="fill:#322153;" d="M296,336c-4.424,0-8,3.576-8,8v32c0,4.424,3.576,8,8,8s8-3.576,8-8v-32
		C304,339.576,300.424,336,296,336z"/>
	<path style="fill:#322153;" d="M360,336c-4.424,0-8,3.576-8,8v32c0,4.424,3.576,8,8,8s8-3.576,8-8v-32
		C368,339.576,364.424,336,360,336z"/>
</g>
<g>
</g>
<g>
</g>
<g>
</g>
<g>
</g>
<g>
</g>
<g>
</g>
<g>
</g>
<g>
</g>
<g>
</g>
<g>
</g>
<g>
</g>
<g>
</g>
<g>
</g>
<g>
</g>
<g>
</g>
</svg>
