<?xml version="1.0" encoding="iso-8859-1"?>
<!-- Generator: Adobe Illustrator 19.0.0, SVG Export Plug-In . SVG Version: 6.00 Build 0)  -->
<svg version="1.1" id="Capa_1" xmlns="http://www.w3.org/2000/svg" xmlns:xlink="http://www.w3.org/1999/xlink" x="0px" y="0px"
	 viewBox="0 0 488 488" style="enable-background:new 0 0 488 488;" xml:space="preserve">
<path style="fill:#00F2A9;" d="M244,424c-160,0-192,64-192,64h384C436,488,403.336,424,244,424z"/>
<g>
	<path style="fill:#322153;" d="M381.976,38.664L364.4,21.088c-3.128-3.128-8.184-3.128-11.312,0s-3.128,8.184,0,11.312
		l17.576,17.576c-2.784,4.192-4.816,8.928-5.856,14.024H340c-4.424,0-8,3.576-8,8s3.576,8,8,8h24.808
		c1.04,5.096,3.072,9.832,5.856,14.024L353.088,111.6c-3.128,3.128-3.128,8.184,0,11.312c1.56,1.56,3.608,2.344,5.656,2.344
		s4.096-0.784,5.656-2.344l17.576-17.576c4.192,2.784,8.928,4.816,14.024,5.856V136c0,4.424,3.576,8,8,8s8-3.576,8-8v-24.808
		c5.096-1.04,9.832-3.072,14.024-5.856l17.576,17.576c1.56,1.56,3.608,2.344,5.656,2.344s4.096-0.784,5.656-2.344
		c3.128-3.128,3.128-8.184,0-11.312l-17.576-17.576c2.784-4.192,4.816-8.928,5.856-14.024H468c4.424,0,8-3.576,8-8s-3.576-8-8-8
		h-24.808c-1.04-5.096-3.072-9.832-5.856-14.024L454.912,32.4c3.128-3.128,3.128-8.184,0-11.312s-8.184-3.128-11.312,0
		l-17.576,17.576c-4.192-2.784-8.928-4.816-14.024-5.856V8c0-4.424-3.576-8-8-8s-8,3.576-8,8v24.808
		C390.904,33.848,386.168,35.88,381.976,38.664z M428,72c0,13.232-10.768,24-24,24s-24-10.768-24-24s10.768-24,24-24
		S428,58.768,428,72z"/>
	<path style="fill:#322153;" d="M20,464h32h384h32c4.424,0,8-3.576,8-8s-3.576-8-8-8h-27.624c-10.728-15.144-56.184-64-196.376-64
		c-9.496,0-18.52,0.24-27.168,0.664c-10-16.576-58.96-106.208-60.744-271.456C171.696,117.032,204,133.024,204,200
		c0,4.424,3.576,8,8,8s8-3.576,8-8c0-38.792-10.288-63.096-23.08-78.344C217.168,129.36,236,143.192,236,168c0,4.424,3.576,8,8,8
		c4.424,0,8-3.576,8-8c0-47.488-47.112-63.664-77.912-69.168c16.88-6.328,41.416-9.288,64.624,11.168c1.512,1.344,3.408,2,5.288,2
		c2.208,0,4.416-0.912,6-2.712c2.92-3.312,2.608-8.368-0.712-11.288c-31.824-28.096-68.28-21.192-91.52-9.496
		C166.832,48.88,209.976,48.016,212.024,48c4.408-0.016,7.976-3.584,7.976-8c0-4.424-3.576-8-8-8
		c-19.256,0-51.68,9.088-65.448,39.48C126.672,41.08,79.808,32,52,32c-4.416,0-7.992,3.576-8,7.992c0,4.416,3.576,8,7.992,8.008
		c0.768,0,67.512,0.592,84.24,37.688c-18.352-9.736-49.768-16.976-88.968,11.864c-3.552,2.616-4.32,7.624-1.704,11.184
		c2.616,3.544,7.608,4.32,11.184,1.704c29.992-22.064,53.592-19.136,68.312-12.648c-19.168,2.76-46.008,9.68-63.488,27.04
		C49.912,136.416,44,150.936,44,168c0,4.424,3.576,8,8,8s8-3.576,8-8c0-12.808,4.192-23.2,12.824-31.792
		c7.768-7.72,18.168-12.976,28.768-16.56C87.664,134.768,76,159.512,76,200c0,4.424,3.576,8,8,8s8-3.576,8-8
		c0-35.256,9.528-56.36,20.744-69.04C109.88,140.504,108,152.504,108,168c0,4.424,3.576,8,8,8c4.424,0,8-3.576,8-8
		c0-33.984,9.136-47.336,16.112-52.592c1.968,152.888,42.784,241.4,58.896,270.448C93.448,394.864,57.024,434.536,47.592,448H20
		c-4.424,0-8,3.576-8,8S15.576,464,20,464z M244,400c108.912,0,156.688,30.64,175,48H68.88C87.056,430.64,134.624,400,244,400z"/>
</g>
<g>
</g>
<g>
</g>
<g>
</g>
<g>
</g>
<g>
</g>
<g>
</g>
<g>
</g>
<g>
</g>
<g>
</g>
<g>
</g>
<g>
</g>
<g>
</g>
<g>
</g>
<g>
</g>
<g>
</g>
</svg>
