<?xml version="1.0" encoding="utf-8"?>
<!-- Generator: Adobe Illustrator 16.0.0, SVG Export Plug-In . SVG Version: 6.00 Build 0)  -->
<!DOCTYPE svg PUBLIC "-//W3C//DTD SVG 1.1//EN" "http://www.w3.org/Graphics/SVG/1.1/DTD/svg11.dtd">
<svg version="1.1" id="Layer_1" xmlns="http://www.w3.org/2000/svg" xmlns:xlink="http://www.w3.org/1999/xlink" x="0px" y="0px"
	 width="212.131px" height="304.441px" viewBox="0 0 212.131 304.441" enable-background="new 0 0 212.131 304.441"
	 xml:space="preserve">
<path id="synbol" fill="#00B100" d="M212.131,149.332c0-0.097-0.027-0.188-0.075-0.265l-2.333-8.112
	c-0.256-0.9-6.391-22.002-22.302-35.386c15.65-13.332,21.785-34.257,22.041-35.149l2.37-8.25c0.003-0.011-0.002-0.021,0-0.032
	c0.036-0.165-0.012-0.332-0.131-0.452c-0.007-0.008-0.008-0.02-0.017-0.027c-0.01-0.009-0.023-0.008-0.034-0.016
	c-0.02-0.016-0.034-0.036-0.057-0.048l-7.506-4.148c-0.168-0.095-17.024-9.484-35.916-9.484c-1.623,0-3.261,0.081-4.88,0.22
	c1.647-20.668-8.822-39.621-9.272-40.422l-4.15-7.51c-0.013-0.022-0.032-0.036-0.047-0.056c-0.009-0.011-0.009-0.025-0.018-0.036
	c-0.008-0.008-0.02-0.01-0.028-0.018c-0.119-0.118-0.286-0.166-0.45-0.13c-0.011,0.002-0.021-0.003-0.032,0l-8.25,2.37
	c-0.902,0.259-22.058,6.472-35.374,22.301C92.348,9.045,71.413,2.898,70.52,2.642l-8.25-2.37c-0.011-0.003-0.021,0.002-0.032,0
	c-0.081-0.018-0.163-0.022-0.241,0c-0.001,0-0.002,0-0.003,0c-0.079,0.022-0.147,0.071-0.207,0.13
	c-0.008,0.008-0.021,0.009-0.027,0.017c-0.009,0.01-0.009,0.024-0.017,0.035c-0.016,0.02-0.035,0.034-0.048,0.057l-4.15,7.509
	c-0.455,0.819-11.016,20.13-9.246,40.774c-1.439-0.121-2.92-0.191-4.526-0.191c-18.912,0-35.748,9.39-35.912,9.482l-7.51,4.15
	c-0.022,0.013-0.037,0.033-0.057,0.048c-0.011,0.008-0.024,0.008-0.034,0.017c-0.009,0.007-0.01,0.02-0.018,0.027
	c-0.118,0.12-0.166,0.287-0.13,0.451c0.002,0.011-0.003,0.022,0,0.033l2.37,8.25c0.258,0.901,6.454,22.035,22.292,35.375
	C9.129,119.78,2.997,140.692,2.741,141.584l-2.37,8.25c-0.003,0.011,0.002,0.021,0,0.032c-0.036,0.165,0.012,0.332,0.13,0.452
	c0.008,0.008,0.009,0.02,0.018,0.027c0.016,0.014,0.035,0.02,0.052,0.032c0.015,0.01,0.023,0.024,0.039,0.033l7.505,4.147
	c0.042,0.024,4.403,2.467,11.262,4.897c8.644,3.044,16.939,4.588,24.655,4.588c1.623,0,3.26-0.081,4.879-0.22
	c-1.648,20.667,8.823,39.621,9.273,40.422l4.15,7.51c0.01,0.018,0.029,0.025,0.04,0.042c0.012,0.015,0.012,0.036,0.024,0.05
	c0.024,0.027,0.058,0.042,0.087,0.063c0.021,0.014,0.036,0.031,0.059,0.042c0.07,0.037,0.147,0.061,0.228,0.061
	c0.046,0,0.093-0.006,0.138-0.02l8.25-2.37c0.903-0.259,22.067-6.474,35.375-22.292c13.321,15.628,34.256,21.775,35.149,22.032
	l8.25,2.37c0.041,0.012,0.077,0.016,0.127,0.017c0.003,0,0.007,0.003,0.011,0.003c0.001,0,0.002-0.001,0.004-0.001
	c0.003,0,0.004,0.001,0.007,0.001c0.084-0.001,0.161-0.028,0.232-0.065c0.006-0.003,0.01-0.007,0.016-0.01
	c0.107-0.062,0.189-0.156,0.229-0.274l4.1-7.417c0.455-0.819,11.016-20.13,9.246-40.774c1.439,0.121,2.92,0.191,4.526,0.191
	c18.484,0,35.208-9.085,35.912-9.472l7.46-4.132C211.994,149.727,212.131,149.547,212.131,149.332z M13.911,68.19
	c2.328-1.214,15.665-7.822,29.862-7.822c5.215,0,10.009,0.89,14.247,2.646c4.199,1.742,8.176,4.461,11.818,8.083
	C79.96,81.146,84.752,95.35,85.543,97.864c-2.313,1.206-15.503,7.747-29.594,7.818l-0.19,0c-5.237,0-10.054-0.893-14.315-2.652
	c-0.595-0.247-1.179-0.512-1.752-0.791c-0.19-0.093-0.374-0.196-0.563-0.292c-0.379-0.194-0.758-0.387-1.127-0.594
	c-0.219-0.123-0.431-0.255-0.646-0.382c-0.329-0.194-0.658-0.387-0.979-0.591c-0.226-0.144-0.445-0.294-0.667-0.442
	c-0.301-0.201-0.603-0.402-0.897-0.612c-0.223-0.159-0.439-0.323-0.658-0.486c-0.284-0.211-0.567-0.424-0.845-0.642
	c-0.217-0.171-0.43-0.346-0.643-0.521c-0.269-0.222-0.537-0.444-0.8-0.672c-0.209-0.181-0.414-0.364-0.619-0.549
	c-0.258-0.232-0.513-0.466-0.765-0.704c-0.199-0.188-0.396-0.378-0.592-0.569c-0.247-0.243-0.491-0.488-0.732-0.735
	c-0.189-0.194-0.378-0.389-0.563-0.585c-0.238-0.252-0.472-0.507-0.704-0.764c-0.178-0.197-0.356-0.394-0.53-0.593
	c-0.231-0.264-0.458-0.53-0.683-0.797c-0.165-0.197-0.332-0.393-0.493-0.59c-0.226-0.276-0.445-0.555-0.664-0.833
	c-0.151-0.193-0.306-0.385-0.454-0.579c-0.226-0.294-0.443-0.591-0.662-0.888c-0.132-0.179-0.268-0.358-0.396-0.538
	c-0.239-0.333-0.471-0.667-0.701-1.001c-0.1-0.145-0.203-0.289-0.302-0.434c-0.315-0.465-0.622-0.931-0.92-1.396
	c-0.009-0.014-0.019-0.027-0.027-0.041c-0.31-0.484-0.609-0.967-0.9-1.447c-0.073-0.121-0.142-0.24-0.214-0.361
	c-0.212-0.354-0.423-0.709-0.625-1.061c-0.096-0.167-0.186-0.33-0.279-0.496c-0.171-0.302-0.342-0.605-0.505-0.904
	c-0.1-0.183-0.194-0.362-0.291-0.542c-0.148-0.277-0.298-0.555-0.439-0.828c-0.099-0.188-0.191-0.373-0.287-0.559
	c-0.132-0.26-0.265-0.52-0.392-0.775c-0.093-0.188-0.184-0.374-0.273-0.559c-0.12-0.246-0.238-0.491-0.353-0.732
	c-0.088-0.184-0.172-0.365-0.256-0.546c-0.109-0.234-0.217-0.467-0.32-0.695c-0.08-0.176-0.158-0.35-0.235-0.522
	c-0.1-0.224-0.196-0.444-0.291-0.661c-0.072-0.167-0.145-0.333-0.214-0.496c-0.09-0.21-0.176-0.415-0.26-0.617
	c-0.065-0.156-0.131-0.313-0.193-0.465c-0.081-0.198-0.158-0.389-0.233-0.579c-0.058-0.144-0.116-0.289-0.171-0.428
	c-0.071-0.181-0.138-0.353-0.204-0.525c-0.051-0.133-0.104-0.27-0.152-0.397c-0.061-0.16-0.115-0.309-0.171-0.459
	c-0.047-0.125-0.095-0.254-0.138-0.372c-0.045-0.124-0.085-0.235-0.126-0.352c-0.046-0.128-0.095-0.262-0.136-0.38
	c-0.019-0.053-0.033-0.097-0.052-0.148C14.15,68.93,14.002,68.479,13.911,68.19z M125.581,114.04
	c0.04,0.141,3.66,12.506,12.066,23.081c-10.534-8.286-22.738-11.859-22.878-11.899c-0.222-0.063-0.462,0.034-0.575,0.238
	c-0.071,0.129-6.252,11.431-7.789,24.86c-1.586-13.308-7.686-24.472-7.756-24.6c-0.112-0.204-0.354-0.302-0.575-0.238
	c-0.143,0.041-12.521,3.672-23.108,12.085c8.299-10.539,11.876-22.757,11.916-22.897c0.064-0.224-0.034-0.462-0.238-0.575
	c-0.129-0.071-11.422-6.244-24.839-7.786c13.296-1.588,24.452-7.688,24.579-7.759c0.204-0.113,0.303-0.352,0.238-0.576
	c-0.041-0.142-3.671-12.521-12.086-23.108c10.539,8.3,22.757,11.877,22.897,11.917c0.046,0.013,0.092,0.02,0.138,0.02
	c0.179,0,0.348-0.096,0.438-0.258c0.071-0.128,6.245-11.423,7.787-24.842c1.587,13.298,7.688,24.455,7.758,24.582
	c0.09,0.162,0.259,0.258,0.438,0.258c0.046,0,0.092-0.006,0.138-0.02c0.142-0.04,12.513-3.662,23.097-12.073
	c-8.289,10.536-11.864,22.746-11.904,22.885c-0.064,0.224,0.034,0.463,0.238,0.576c0.128,0.071,11.457,6.264,24.903,7.793
	c-13.331,1.579-24.516,7.69-24.644,7.761C125.615,113.577,125.517,113.816,125.581,114.04z M197.929,67.84
	c-0.008,0.025-0.013,0.042-0.021,0.068c-0.048,0.148-0.104,0.317-0.168,0.505c-0.013,0.039-0.029,0.086-0.043,0.126
	c-0.052,0.153-0.106,0.312-0.168,0.488c-0.032,0.089-0.069,0.192-0.103,0.288c-0.05,0.139-0.099,0.277-0.153,0.428
	c-0.044,0.119-0.093,0.251-0.14,0.377c-0.055,0.146-0.107,0.291-0.166,0.446c-0.053,0.139-0.11,0.288-0.166,0.433
	c-0.061,0.156-0.12,0.312-0.185,0.476c-0.063,0.16-0.13,0.328-0.197,0.495c-0.065,0.165-0.133,0.331-0.202,0.502
	c-0.072,0.175-0.147,0.356-0.224,0.538c-0.073,0.177-0.148,0.356-0.227,0.54c-0.079,0.186-0.162,0.376-0.245,0.569
	c-0.084,0.191-0.169,0.385-0.256,0.582c-0.088,0.196-0.177,0.395-0.268,0.596c-0.093,0.203-0.188,0.409-0.284,0.616
	c-0.095,0.205-0.191,0.411-0.29,0.62c-0.102,0.213-0.207,0.431-0.313,0.648c-0.103,0.212-0.206,0.425-0.313,0.641
	c-0.11,0.223-0.226,0.449-0.341,0.676c-0.111,0.218-0.222,0.436-0.337,0.657c-0.122,0.234-0.249,0.472-0.376,0.709
	c-0.117,0.219-0.231,0.437-0.353,0.658c-0.137,0.25-0.28,0.503-0.422,0.756c-0.12,0.214-0.237,0.426-0.361,0.642
	c-0.16,0.279-0.329,0.562-0.496,0.843c-0.113,0.192-0.223,0.382-0.34,0.575c-0.284,0.47-0.577,0.941-0.879,1.415
	c-0.077,0.12-0.158,0.239-0.236,0.359c-0.233,0.36-0.468,0.72-0.712,1.081c-0.123,0.182-0.253,0.363-0.378,0.545
	c-0.206,0.298-0.411,0.595-0.625,0.892c-0.144,0.2-0.294,0.399-0.44,0.599c-0.204,0.277-0.407,0.553-0.618,0.829
	c-0.159,0.208-0.323,0.414-0.486,0.621c-0.208,0.264-0.416,0.529-0.63,0.791c-0.171,0.209-0.347,0.416-0.521,0.624
	c-0.216,0.257-0.433,0.513-0.655,0.767c-0.18,0.206-0.364,0.41-0.549,0.613c-0.227,0.25-0.454,0.5-0.687,0.747
	c-0.19,0.201-0.383,0.4-0.577,0.6c-0.236,0.242-0.476,0.482-0.718,0.72c-0.199,0.196-0.401,0.39-0.604,0.583
	c-0.247,0.234-0.498,0.464-0.751,0.692c-0.209,0.188-0.419,0.375-0.632,0.56c-0.259,0.225-0.523,0.445-0.789,0.664
	c-0.216,0.177-0.431,0.354-0.65,0.527c-0.274,0.217-0.556,0.428-0.837,0.638c-0.222,0.165-0.441,0.331-0.666,0.49
	c-0.293,0.209-0.593,0.409-0.893,0.609c-0.224,0.149-0.443,0.301-0.67,0.445c-0.32,0.204-0.648,0.396-0.976,0.589
	c-0.217,0.128-0.431,0.262-0.65,0.385c-0.368,0.207-0.746,0.399-1.123,0.592c-0.189,0.098-0.375,0.202-0.566,0.295
	c-0.574,0.28-1.157,0.545-1.753,0.792c-4.143,1.72-8.85,2.609-13.991,2.642l-0.259,0c-14.196,0-27.524-6.606-29.85-7.818
	c0.779-2.482,5.454-16.365,15.327-26.392c3.748-3.812,7.851-6.658,12.195-8.458c4.238-1.756,9.032-2.646,14.246-2.646
	c14.196,0,27.525,6.607,29.854,7.822C197.996,67.633,197.964,67.732,197.929,67.84z M140.819,69.928
	c-10.036,9.999-24.083,14.731-26.58,15.516c-1.206-2.312-7.746-15.495-7.817-29.593c-0.022-5.312,0.87-10.193,2.651-14.507
	c0.246-0.595,0.512-1.177,0.791-1.751c0.095-0.195,0.2-0.384,0.3-0.577c0.191-0.373,0.382-0.747,0.586-1.111
	c0.125-0.224,0.261-0.44,0.391-0.661c0.191-0.323,0.381-0.647,0.582-0.963c0.146-0.23,0.3-0.453,0.45-0.679
	c0.199-0.297,0.397-0.595,0.604-0.886c0.161-0.226,0.328-0.448,0.493-0.67c0.209-0.279,0.417-0.558,0.632-0.831
	c0.175-0.222,0.354-0.439,0.533-0.657c0.217-0.264,0.436-0.526,0.658-0.783c0.186-0.215,0.374-0.426,0.563-0.636
	c0.227-0.251,0.456-0.5,0.688-0.746c0.193-0.205,0.389-0.408,0.586-0.609c0.236-0.24,0.474-0.478,0.714-0.712
	c0.201-0.196,0.403-0.392,0.607-0.583c0.244-0.23,0.491-0.457,0.739-0.682c0.204-0.185,0.409-0.37,0.616-0.552
	c0.254-0.223,0.511-0.44,0.769-0.657c0.206-0.173,0.412-0.348,0.619-0.518c0.266-0.216,0.532-0.427,0.8-0.637
	c0.203-0.16,0.406-0.323,0.611-0.479c0.277-0.213,0.558-0.419,0.837-0.625c0.197-0.146,0.394-0.294,0.592-0.436
	c0.302-0.217,0.605-0.426,0.908-0.636c0.176-0.121,0.351-0.247,0.525-0.365c0.393-0.266,0.785-0.522,1.178-0.776
	c0.086-0.056,0.174-0.116,0.26-0.171c0.478-0.306,0.954-0.602,1.428-0.889c0.156-0.095,0.312-0.184,0.467-0.276
	c0.319-0.189,0.638-0.38,0.954-0.562c0.189-0.109,0.375-0.211,0.563-0.317c0.279-0.157,0.56-0.316,0.835-0.467
	c0.199-0.108,0.395-0.212,0.592-0.317c0.261-0.14,0.522-0.28,0.78-0.414c0.199-0.104,0.396-0.203,0.592-0.304
	c0.249-0.127,0.498-0.254,0.743-0.375c0.196-0.097,0.389-0.191,0.582-0.285c0.238-0.116,0.477-0.231,0.71-0.342
	c0.188-0.089,0.374-0.176,0.56-0.262c0.232-0.108,0.462-0.214,0.688-0.317c0.177-0.08,0.351-0.158,0.522-0.235
	c0.223-0.1,0.442-0.196,0.658-0.29c0.168-0.073,0.335-0.145,0.498-0.215c0.213-0.091,0.421-0.179,0.626-0.264
	c0.151-0.063,0.303-0.126,0.448-0.186c0.206-0.084,0.404-0.164,0.602-0.243c0.136-0.055,0.274-0.11,0.406-0.162
	c0.193-0.076,0.378-0.147,0.562-0.218c0.118-0.046,0.24-0.093,0.354-0.136c0.191-0.073,0.372-0.14,0.55-0.205
	c0.089-0.033,0.185-0.069,0.271-0.1c0.195-0.071,0.376-0.136,0.553-0.198c0.056-0.02,0.119-0.043,0.174-0.062
	c0.666-0.234,1.171-0.399,1.489-0.499c1.615,3.107,12.78,25.754,5.177,44.109C147.323,62.188,144.54,66.227,140.819,69.928z
	 M67.649,14.081c0.282,0.089,0.723,0.233,1.276,0.424c0.064,0.022,0.121,0.042,0.188,0.065c0.116,0.041,0.248,0.088,0.374,0.133
	c0.115,0.042,0.228,0.081,0.352,0.125c0.125,0.046,0.264,0.098,0.397,0.147c0.141,0.052,0.28,0.103,0.429,0.159
	c0.137,0.052,0.282,0.108,0.426,0.163c0.162,0.063,0.325,0.125,0.496,0.192c0.147,0.058,0.302,0.12,0.455,0.181
	c0.18,0.072,0.361,0.145,0.549,0.222c0.16,0.065,0.326,0.135,0.492,0.204c0.193,0.081,0.389,0.163,0.589,0.248
	c0.172,0.073,0.348,0.149,0.524,0.226c0.208,0.09,0.418,0.183,0.632,0.278c0.179,0.08,0.36,0.161,0.543,0.244
	c0.223,0.101,0.449,0.205,0.678,0.311c0.187,0.086,0.374,0.174,0.563,0.264c0.234,0.111,0.474,0.227,0.714,0.343
	c0.19,0.093,0.381,0.186,0.574,0.281c0.249,0.124,0.503,0.252,0.756,0.382c0.193,0.098,0.385,0.195,0.581,0.297
	c0.263,0.137,0.53,0.281,0.798,0.424c0.19,0.102,0.379,0.201,0.571,0.306c0.288,0.157,0.58,0.322,0.872,0.487
	c0.176,0.099,0.35,0.194,0.526,0.296c0.337,0.193,0.677,0.396,1.017,0.598c0.136,0.081,0.27,0.157,0.405,0.239
	c0.478,0.29,0.958,0.588,1.439,0.896c0.041,0.026,0.082,0.054,0.122,0.08c0.438,0.282,0.877,0.57,1.316,0.867
	c0.153,0.104,0.307,0.214,0.461,0.32c0.325,0.225,0.651,0.45,0.976,0.683c0.183,0.131,0.362,0.267,0.544,0.4
	c0.296,0.217,0.591,0.435,0.885,0.66c0.193,0.148,0.386,0.301,0.578,0.453c0.278,0.219,0.557,0.438,0.833,0.664
	c0.199,0.163,0.396,0.33,0.594,0.497c0.267,0.224,0.532,0.449,0.795,0.679c0.199,0.174,0.396,0.353,0.593,0.53
	c0.257,0.232,0.513,0.466,0.766,0.705c0.196,0.185,0.391,0.374,0.584,0.563c0.248,0.241,0.493,0.485,0.735,0.732
	c0.191,0.195,0.382,0.393,0.57,0.592c0.236,0.251,0.471,0.505,0.702,0.762c0.186,0.206,0.369,0.412,0.551,0.622
	c0.228,0.263,0.45,0.53,0.672,0.799c0.175,0.213,0.351,0.425,0.521,0.642c0.22,0.278,0.432,0.561,0.644,0.846
	c0.163,0.218,0.326,0.435,0.484,0.657c0.211,0.295,0.412,0.598,0.614,0.9c0.147,0.221,0.298,0.44,0.441,0.665
	c0.204,0.321,0.397,0.65,0.592,0.979c0.127,0.215,0.259,0.427,0.382,0.646c0.208,0.372,0.403,0.752,0.598,1.133
	c0.095,0.186,0.197,0.367,0.289,0.556c0.28,0.574,0.545,1.158,0.792,1.754c1.753,4.229,2.642,9.023,2.642,14.249
	c0,14.196-6.606,27.525-7.818,29.851c-2.498-0.785-16.544-5.516-26.578-15.515c-3.729-3.718-6.512-7.758-8.271-12.007
	C54.879,39.825,66.035,17.186,67.649,14.081z M14.271,144.172c0.009-0.028,0.015-0.048,0.024-0.078
	c0.048-0.147,0.104-0.316,0.167-0.503c0.016-0.046,0.036-0.103,0.053-0.152c0.05-0.146,0.101-0.296,0.159-0.463
	c0.032-0.092,0.07-0.198,0.105-0.296c0.049-0.137,0.097-0.272,0.15-0.42c0.044-0.121,0.094-0.253,0.141-0.38
	c0.054-0.146,0.106-0.29,0.165-0.444c0.053-0.14,0.11-0.289,0.167-0.435c0.06-0.155,0.119-0.31,0.183-0.473
	c0.063-0.162,0.132-0.332,0.199-0.5c0.065-0.163,0.132-0.327,0.2-0.496c0.072-0.176,0.148-0.359,0.225-0.542
	c0.074-0.177,0.149-0.355,0.227-0.538c0.08-0.187,0.162-0.378,0.246-0.571c0.083-0.19,0.168-0.383,0.255-0.579
	c0.087-0.197,0.177-0.396,0.268-0.598c0.093-0.203,0.188-0.409,0.284-0.617c0.095-0.205,0.191-0.41,0.29-0.619
	c0.102-0.214,0.207-0.432,0.313-0.65c0.103-0.212,0.206-0.424,0.313-0.639c0.111-0.225,0.229-0.453,0.344-0.681
	c0.11-0.217,0.22-0.433,0.334-0.652c0.122-0.234,0.25-0.473,0.377-0.711c0.117-0.219,0.232-0.437,0.354-0.658
	c0.135-0.248,0.277-0.5,0.418-0.75c0.121-0.215,0.239-0.43,0.364-0.647c0.16-0.278,0.328-0.559,0.494-0.839
	c0.114-0.193,0.225-0.385,0.342-0.578c0.284-0.47,0.577-0.942,0.88-1.415c0.076-0.121,0.159-0.242,0.237-0.362
	c0.232-0.358,0.467-0.717,0.709-1.076c0.126-0.186,0.259-0.371,0.387-0.557c0.203-0.293,0.405-0.587,0.615-0.879
	c0.146-0.204,0.299-0.406,0.449-0.609c0.201-0.273,0.402-0.547,0.61-0.819c0.16-0.209,0.326-0.417,0.49-0.625
	c0.206-0.263,0.413-0.525,0.626-0.786c0.172-0.212,0.351-0.421,0.526-0.631c0.214-0.254,0.429-0.507,0.648-0.758
	c0.183-0.209,0.37-0.416,0.557-0.623c0.224-0.247,0.449-0.493,0.679-0.736c0.192-0.204,0.388-0.406,0.584-0.607
	c0.234-0.24,0.471-0.478,0.711-0.713c0.201-0.198,0.404-0.394,0.61-0.588c0.245-0.232,0.494-0.46,0.746-0.687
	c0.21-0.189,0.421-0.378,0.635-0.563c0.259-0.224,0.521-0.443,0.786-0.661c0.217-0.178,0.434-0.356,0.654-0.53
	c0.272-0.215,0.552-0.424,0.831-0.632c0.223-0.167,0.444-0.334,0.672-0.496c0.29-0.207,0.588-0.405,0.885-0.603
	c0.226-0.151,0.449-0.305,0.679-0.451c0.315-0.201,0.641-0.391,0.964-0.583c0.221-0.13,0.438-0.266,0.661-0.391
	c0.364-0.204,0.737-0.395,1.11-0.586c0.193-0.099,0.383-0.205,0.578-0.3c0.574-0.279,1.157-0.544,1.752-0.791
	c4.229-1.753,9.022-2.642,14.248-2.642c14.196,0,27.525,6.605,29.852,7.818c-0.785,2.498-5.517,16.544-15.516,26.579
	c-3.718,3.729-7.758,6.512-12.007,8.271c-4.237,1.753-9.028,2.642-14.241,2.642c-14.197,0-27.529-6.604-29.858-7.818
	C14.206,144.374,14.237,144.277,14.271,144.172z M71.196,142.264c10.049-10.12,24.254-14.912,26.768-15.704
	c1.213,2.326,7.817,15.647,7.817,29.841c0,5.207-0.893,10.004-2.651,14.259c-0.246,0.595-0.512,1.177-0.791,1.751
	c-0.095,0.195-0.2,0.384-0.3,0.577c-0.191,0.373-0.382,0.747-0.586,1.111c-0.125,0.224-0.261,0.44-0.391,0.661
	c-0.191,0.323-0.381,0.647-0.582,0.963c-0.146,0.23-0.3,0.453-0.45,0.679c-0.199,0.297-0.397,0.595-0.604,0.886
	c-0.161,0.226-0.328,0.448-0.493,0.67c-0.209,0.279-0.417,0.558-0.632,0.831c-0.175,0.222-0.354,0.439-0.533,0.657
	c-0.217,0.264-0.436,0.526-0.658,0.783c-0.186,0.215-0.374,0.426-0.563,0.636c-0.227,0.251-0.456,0.5-0.688,0.746
	c-0.193,0.205-0.389,0.408-0.586,0.609c-0.236,0.24-0.474,0.478-0.714,0.712c-0.201,0.196-0.403,0.392-0.607,0.583
	c-0.244,0.23-0.491,0.457-0.739,0.682c-0.204,0.185-0.409,0.37-0.616,0.552c-0.254,0.223-0.511,0.44-0.769,0.657
	c-0.206,0.173-0.412,0.348-0.619,0.518c-0.266,0.216-0.532,0.427-0.8,0.637c-0.203,0.16-0.406,0.323-0.611,0.479
	c-0.277,0.213-0.558,0.419-0.837,0.625c-0.197,0.146-0.394,0.294-0.592,0.436c-0.302,0.217-0.605,0.426-0.908,0.636
	c-0.176,0.121-0.351,0.247-0.525,0.365c-0.393,0.266-0.785,0.522-1.178,0.776c-0.086,0.056-0.174,0.116-0.26,0.171
	c-0.478,0.306-0.954,0.602-1.428,0.889c-0.156,0.095-0.312,0.184-0.467,0.276c-0.319,0.189-0.638,0.38-0.954,0.562
	c-0.189,0.109-0.375,0.211-0.563,0.317c-0.279,0.157-0.56,0.316-0.835,0.467c-0.199,0.108-0.395,0.212-0.592,0.317
	c-0.261,0.14-0.522,0.28-0.78,0.414c-0.199,0.104-0.396,0.203-0.592,0.304c-0.249,0.127-0.498,0.254-0.743,0.375
	c-0.196,0.097-0.389,0.191-0.582,0.285c-0.238,0.116-0.477,0.231-0.71,0.342c-0.188,0.089-0.374,0.176-0.56,0.262
	c-0.232,0.108-0.462,0.214-0.688,0.317c-0.177,0.08-0.351,0.158-0.522,0.235c-0.223,0.1-0.442,0.196-0.658,0.29
	c-0.168,0.073-0.335,0.145-0.498,0.215c-0.213,0.091-0.421,0.179-0.626,0.264c-0.151,0.063-0.303,0.126-0.448,0.186
	c-0.206,0.084-0.404,0.164-0.602,0.243c-0.136,0.055-0.274,0.11-0.406,0.162c-0.193,0.076-0.378,0.147-0.562,0.218
	c-0.118,0.046-0.24,0.093-0.354,0.136c-0.191,0.073-0.372,0.14-0.55,0.205c-0.089,0.033-0.185,0.069-0.271,0.1
	c-0.195,0.071-0.376,0.136-0.553,0.198c-0.056,0.02-0.119,0.043-0.174,0.062c-0.666,0.234-1.171,0.399-1.489,0.499
	c-1.615-3.107-12.78-25.754-5.177-44.109C64.854,149.885,67.574,145.908,71.196,142.264z M144.554,197.923
	c-0.308-0.097-0.792-0.254-1.419-0.474c-0.012-0.004-0.021-0.007-0.033-0.012c-0.143-0.05-0.303-0.107-0.46-0.164
	c-0.089-0.032-0.173-0.061-0.267-0.095c-0.145-0.053-0.303-0.112-0.458-0.169c-0.121-0.045-0.239-0.088-0.366-0.136
	c-0.152-0.058-0.314-0.12-0.476-0.182c-0.146-0.056-0.292-0.112-0.445-0.172c-0.162-0.064-0.332-0.132-0.501-0.2
	c-0.165-0.066-0.33-0.132-0.502-0.203c-0.171-0.07-0.348-0.144-0.524-0.217c-0.185-0.077-0.371-0.155-0.563-0.237
	c-0.179-0.076-0.361-0.155-0.545-0.235c-0.199-0.086-0.401-0.176-0.607-0.267c-0.188-0.084-0.379-0.169-0.572-0.257
	c-0.211-0.096-0.425-0.194-0.641-0.294c-0.198-0.092-0.396-0.185-0.599-0.28c-0.222-0.105-0.448-0.215-0.675-0.325
	c-0.203-0.098-0.405-0.197-0.612-0.299c-0.236-0.118-0.478-0.24-0.718-0.363c-0.204-0.104-0.407-0.207-0.614-0.314
	c-0.251-0.131-0.507-0.268-0.762-0.404c-0.202-0.108-0.402-0.214-0.606-0.325c-0.272-0.148-0.548-0.304-0.823-0.459
	c-0.192-0.108-0.383-0.212-0.575-0.324c-0.314-0.18-0.632-0.369-0.949-0.558c-0.157-0.093-0.313-0.183-0.47-0.278
	c-0.476-0.288-0.953-0.584-1.432-0.89c-0.066-0.042-0.132-0.087-0.197-0.129c-0.413-0.267-0.827-0.538-1.241-0.817
	c-0.163-0.111-0.327-0.228-0.49-0.341c-0.315-0.218-0.632-0.436-0.946-0.662c-0.189-0.136-0.378-0.278-0.566-0.417
	c-0.287-0.211-0.575-0.423-0.86-0.641c-0.2-0.153-0.398-0.312-0.598-0.468c-0.272-0.214-0.545-0.429-0.815-0.649
	c-0.202-0.166-0.403-0.336-0.604-0.505c-0.264-0.221-0.526-0.444-0.786-0.671c-0.201-0.176-0.4-0.356-0.6-0.537
	c-0.255-0.23-0.508-0.461-0.758-0.697c-0.199-0.188-0.396-0.378-0.592-0.57c-0.245-0.239-0.487-0.48-0.728-0.725
	c-0.194-0.198-0.386-0.397-0.576-0.598c-0.235-0.25-0.468-0.502-0.698-0.758c-0.187-0.207-0.371-0.414-0.554-0.625
	c-0.227-0.261-0.448-0.527-0.668-0.795c-0.177-0.214-0.354-0.429-0.525-0.647c-0.218-0.276-0.429-0.558-0.64-0.841
	c-0.163-0.22-0.328-0.438-0.487-0.661c-0.209-0.294-0.409-0.595-0.61-0.895c-0.149-0.223-0.301-0.444-0.445-0.67
	c-0.202-0.319-0.395-0.646-0.588-0.973c-0.128-0.217-0.262-0.431-0.386-0.652c-0.207-0.37-0.4-0.749-0.595-1.128
	c-0.096-0.188-0.198-0.371-0.291-0.561c-0.28-0.574-0.545-1.158-0.792-1.753c-0.645-1.554-1.173-3.188-1.583-4.894
	c-0.683-2.844-1.038-5.89-1.059-9.107c-0.08-14.292,6.599-27.759,7.818-30.098c2.481,0.779,16.364,5.454,26.391,15.328
	c3.811,3.745,6.656,7.848,8.459,12.195C157.333,172.181,146.168,194.82,144.554,197.923z M126.66,114.15
	c2.326-1.213,15.647-7.818,29.852-7.818c5.226,0,10.02,0.889,14.248,2.642c0.595,0.247,1.178,0.512,1.752,0.791
	c0.192,0.094,0.378,0.198,0.567,0.295c0.377,0.193,0.754,0.385,1.121,0.591c0.221,0.124,0.434,0.257,0.651,0.385
	c0.327,0.193,0.655,0.386,0.975,0.589c0.226,0.144,0.445,0.294,0.667,0.443c0.302,0.201,0.603,0.402,0.897,0.612
	c0.223,0.158,0.44,0.323,0.659,0.486c0.284,0.211,0.566,0.423,0.844,0.641c0.217,0.171,0.43,0.347,0.643,0.522
	c0.27,0.221,0.537,0.444,0.8,0.672c0.209,0.181,0.414,0.364,0.619,0.549c0.258,0.232,0.514,0.467,0.766,0.705
	c0.198,0.188,0.396,0.377,0.59,0.568c0.248,0.243,0.492,0.488,0.734,0.736c0.188,0.194,0.377,0.388,0.563,0.585
	c0.238,0.252,0.472,0.508,0.704,0.765c0.178,0.196,0.355,0.393,0.529,0.591c0.232,0.266,0.459,0.533,0.686,0.802
	c0.163,0.195,0.329,0.389,0.489,0.585c0.229,0.28,0.451,0.562,0.673,0.844c0.148,0.189,0.299,0.376,0.443,0.566
	c0.23,0.3,0.453,0.603,0.675,0.905c0.129,0.174,0.26,0.347,0.386,0.522c0.244,0.34,0.479,0.681,0.715,1.021
	c0.095,0.138,0.194,0.276,0.287,0.414c0.655,0.966,1.272,1.933,1.854,2.892c0.061,0.1,0.116,0.199,0.177,0.299
	c0.226,0.376,0.448,0.752,0.662,1.125c0.087,0.15,0.168,0.299,0.253,0.449c0.181,0.319,0.36,0.639,0.533,0.954
	c0.09,0.166,0.177,0.329,0.265,0.493c0.158,0.295,0.316,0.59,0.468,0.881c0.089,0.171,0.174,0.339,0.26,0.508
	c0.143,0.279,0.284,0.558,0.421,0.831c0.083,0.169,0.164,0.334,0.245,0.501c0.131,0.268,0.26,0.535,0.384,0.796
	c0.077,0.164,0.152,0.325,0.228,0.485c0.119,0.256,0.236,0.51,0.35,0.759c0.07,0.155,0.14,0.309,0.207,0.46
	c0.111,0.25,0.22,0.495,0.324,0.736c0.061,0.139,0.12,0.277,0.179,0.414c0.105,0.247,0.207,0.487,0.305,0.724
	c0.05,0.119,0.1,0.239,0.147,0.354c0.1,0.244,0.194,0.479,0.287,0.71c0.039,0.099,0.08,0.2,0.118,0.297
	c0.095,0.241,0.185,0.472,0.271,0.697c0.028,0.073,0.058,0.15,0.085,0.221c0.094,0.249,0.182,0.484,0.265,0.709
	c0.014,0.039,0.029,0.08,0.043,0.118c0.381,1.042,0.634,1.815,0.77,2.245c-2.328,1.214-15.652,7.821-29.858,7.821
	c-5.216,0-10.011-0.89-14.251-2.646c-4.268-1.767-8.308-4.55-12.007-8.271C132.177,130.693,127.445,116.647,126.66,114.15z
	 M162.252,48.722v0.01c0,0.007,0.004,0.013,0.004,0.02c0,0.006-0.003,0.012-0.002,0.019c0.002,0.018,0.012,0.032,0.016,0.049
	c0.008,0.048,0.02,0.093,0.041,0.135c0.005,0.009,0.011,0.016,0.016,0.024c0.028,0.047,0.062,0.089,0.104,0.125
	c0.009,0.007,0.02,0.013,0.028,0.02c0.04,0.029,0.081,0.053,0.129,0.069c0.019,0.007,0.037,0.009,0.057,0.014
	c0.029,0.006,0.056,0.019,0.086,0.021c0.008,0,0.015,0,0.022,0c0.015,0,0.026-0.007,0.041-0.008c0.002,0,0.005,0.001,0.007,0
	c1.777-0.171,3.585-0.258,5.372-0.258c18.632,0,35.259,9.262,35.428,9.357l6.601,3.647l-11.552,4.782
	c-1.863-0.985-15.695-8.021-30.479-8.021c-5.347,0-10.269,0.916-14.629,2.722c-2.819,1.169-5.537,2.765-8.125,4.764
	c1.925-2.525,3.464-5.171,4.599-7.911c7.933-19.15-4.03-42.715-5.3-45.118l4.782-11.542l3.649,6.604
	C153.256,8.443,164.123,28.089,162.252,48.722z M8.348,58.958c0.165-0.094,16.771-9.355,35.424-9.355
	c1.791,0,3.435,0.075,5.022,0.228c0.008,0.001,0.015-0.002,0.022-0.002c0.009,0,0.016,0.005,0.024,0.005
	c0.017,0,0.033-0.001,0.049-0.002c0.017-0.001,0.03-0.011,0.046-0.014c0.037-0.007,0.07-0.017,0.104-0.031
	c0.027-0.012,0.051-0.024,0.075-0.041c0.028-0.019,0.054-0.04,0.078-0.065c0.022-0.021,0.04-0.044,0.058-0.069
	c0.018-0.027,0.033-0.054,0.046-0.084c0.013-0.031,0.022-0.062,0.028-0.095c0.004-0.018,0.014-0.032,0.016-0.05
	c0.002-0.017-0.005-0.032-0.005-0.048c0-0.017,0.007-0.032,0.005-0.048c-1.995-20.557,8.626-39.963,9.079-40.78l3.648-6.601
	l4.781,11.553c-1.269,2.402-13.222,25.958-5.299,45.108c1.169,2.823,2.78,5.552,4.801,8.158c-2.534-1.936-5.192-3.489-7.947-4.632
	c-4.36-1.806-9.282-2.722-14.63-2.722c-14.786,0-28.625,7.036-30.489,8.021L1.742,62.607L8.348,58.958z M49.949,163.327
	c0.001-0.016-0.005-0.03-0.005-0.045c0-0.016,0.007-0.031,0.005-0.048c-0.002-0.019-0.013-0.034-0.016-0.053
	c-0.008-0.033-0.016-0.063-0.029-0.093c-0.013-0.03-0.027-0.057-0.046-0.083c-0.018-0.027-0.037-0.05-0.061-0.073
	c-0.022-0.023-0.046-0.042-0.073-0.06c-0.025-0.017-0.052-0.032-0.081-0.044c-0.032-0.014-0.063-0.022-0.099-0.029
	c-0.017-0.003-0.031-0.013-0.049-0.015c-0.016-0.001-0.03,0.005-0.047,0.005c-0.016,0-0.03-0.006-0.046-0.005
	c-1.777,0.171-3.585,0.258-5.372,0.258c-7.603,0-15.786-1.525-24.322-4.531c-6.775-2.4-11.059-4.8-11.105-4.826l-6.601-3.647
	l11.552-4.782c1.863,0.984,15.698,8.017,30.484,8.017c5.345,0,10.265-0.915,14.624-2.718c2.823-1.168,5.551-2.779,8.157-4.799
	c-1.936,2.534-3.489,5.191-4.631,7.946c-7.933,19.15,4.03,42.715,5.3,45.118l-4.782,11.542l-3.649-6.604
	C58.947,203.561,48.079,183.914,49.949,163.327z M203.86,153.054c-0.693,0.382-17.199,9.348-35.429,9.348
	c-1.791,0-3.435-0.075-5.022-0.228c-0.017-0.001-0.032,0.005-0.049,0.005c-0.016,0-0.031-0.007-0.047-0.005
	c-0.02,0.002-0.036,0.013-0.055,0.017c-0.027,0.006-0.052,0.013-0.077,0.023c-0.039,0.015-0.073,0.034-0.106,0.057
	c-0.018,0.013-0.034,0.026-0.05,0.042c-0.03,0.028-0.056,0.057-0.077,0.091c-0.015,0.022-0.026,0.044-0.038,0.069
	c-0.015,0.033-0.024,0.067-0.032,0.104c-0.003,0.017-0.013,0.03-0.015,0.047c-0.002,0.017,0.005,0.032,0.005,0.048
	c0,0.017-0.007,0.032-0.005,0.048c1.995,20.557-8.626,39.963-9.079,40.78l-3.648,6.601l-4.781-11.553
	c1.27-2.402,13.231-25.958,5.299-45.108c-1.17-2.821-2.767-5.539-4.765-8.125c2.524,1.925,5.171,3.464,7.911,4.599
	c4.362,1.806,9.286,2.722,14.634,2.722c14.787,0,28.621-7.036,30.485-8.021l11.543,4.782L203.86,153.054z"/>
<g id="text">
	<path fill="#004C00" d="M142.649,252.704c-0.104,0.664-0.267,1.302-0.484,1.913c-0.219,0.611-0.585,1.468-1.102,2.568
		c-0.516,1.1-0.824,1.729-0.929,1.887c-0.42,0.664-0.786,0.996-1.102,0.996c-0.226-0.157-0.433-0.31-0.613-0.458
		c-0.186-0.148-0.355-0.223-0.513-0.223c-0.664,0-1.531,0.271-2.607,0.812c-1.074,0.542-2.254,1.403-3.537,2.582
		c-1.284,1.179-2.284,2.28-3,3.301c-0.717,1.022-1.075,1.725-1.075,2.109c0,0.577,0.184,1.022,0.551,1.337
		c0.314,0.244,0.877,0.524,1.691,0.838c0.811,0.315,1.349,0.577,1.611,0.787c0.854,0.593,1.283,1.772,1.283,3.537
		c0,2.428-0.46,5.21-1.376,8.345c-0.917,3.136-2.117,5.856-3.603,8.163c-0.77,1.065-1.666,2.135-2.687,3.209
		c-1.021,1.075-2.118,1.996-3.287,2.765c-2.255,1.484-4.849,2.227-7.783,2.227c-3.336-0.052-5.87-1.18-7.599-3.38
		c-0.787-1.118-1.328-2.306-1.625-3.564c-0.298-1.257-0.445-2.455-0.445-3.589c0-1.433,0.104-2.839,0.313-4.22
		c0.21-1.379,0.534-2.76,0.97-4.14c0.683-2.254,1.507-4.428,2.478-6.524c0.968-2.096,1.76-3.791,2.371-5.084l1.833-3.93
		c0.21-0.437,0.433-0.865,0.669-1.284c0.234-0.419,0.449-0.628,0.642-0.628c0.262,0,0.397,0.209,0.407,0.628
		c0.008,0.419-0.041,0.733-0.146,0.943c-0.279,0.751-0.523,1.385-0.733,1.9c-0.209,0.515-0.524,1.257-0.943,2.227
		c-0.418,0.969-0.874,2.018-1.362,3.144s-0.891,2.057-1.206,2.791c-1.537,4.087-2.305,7.153-2.305,9.197
		c0,2.149,0.764,3.852,2.294,5.109c1.526,1.258,3.681,1.887,6.457,1.887c2.307,0,4.533-0.541,6.683-1.624
		c1.607-0.804,2.949-1.782,4.021-2.935c1.074-1.153,1.892-2.236,2.45-3.25c0.559-1.014,0.838-1.921,0.838-2.726
		c0-0.506-0.37-0.877-1.112-1.113c-0.743-0.236-1.28-0.393-1.612-0.472c-0.332-0.078-0.707-0.222-1.126-0.432
		c-0.805-0.384-1.415-0.873-1.835-1.467c-0.418-0.594-0.629-1.397-0.629-2.41c0-1.555,0.502-3.524,1.506-5.909
		c1.005-2.384,2.425-4.729,4.259-7.036c1.503-1.887,2.865-3.416,4.089-4.585c0.663-0.611,1.505-1.301,2.529-2.069
		c1.021-0.769,2.012-1.433,2.973-1.992c1.187-0.681,2.121-1.074,2.804-1.179c0.279,0,0.473,0.118,0.576,0.354
		C142.677,252.272,142.703,252.494,142.649,252.704z"/>
	<path fill="#004C00" d="M151.438,261.623c-0.031,0.621-0.271,1.757-0.722,3.408c-0.45,1.652-1.044,3.455-1.781,5.41
		c-0.737,1.955-1.384,3.432-1.941,4.433c-0.559,1-1.169,1.764-1.827,2.292c-0.659,0.527-1.73,1.004-3.212,1.431
		c-1.481,0.426-2.668,0.717-3.559,0.872c-0.893,0.155-1.454,0.233-1.687,0.233c-0.234-0.031-0.374-0.129-0.419-0.292
		c-0.047-0.162,0.023-0.368,0.209-0.617c0.247-0.403,0.892-0.922,1.932-1.559c1.039-0.637,2.246-1.438,3.618-2.408
		c1.373-0.97,2.351-1.815,2.931-2.536c0.583-0.721,1.238-1.804,1.968-3.246c0.728-1.443,1.391-2.897,1.987-4.363
		c0.597-1.466,1.024-2.466,1.281-3.001c0.256-0.536,0.531-0.787,0.825-0.757C151.305,260.971,151.438,261.205,151.438,261.623z"/>
	<path fill="#004C00" d="M15.161,261.623c-0.031,0.621-0.271,1.757-0.722,3.408c-0.449,1.652-1.043,3.455-1.779,5.41
		c-0.737,1.955-1.385,3.432-1.942,4.433c-0.56,1-1.169,1.764-1.827,2.292c-0.659,0.527-1.73,1.004-3.211,1.431
		c-1.481,0.426-2.668,0.717-3.56,0.872c-0.893,0.155-1.454,0.233-1.688,0.233c-0.232-0.031-0.372-0.129-0.418-0.292
		c-0.048-0.162,0.021-0.368,0.209-0.617c0.248-0.403,0.893-0.922,1.932-1.559c1.039-0.637,2.246-1.438,3.618-2.408
		c1.373-0.97,2.351-1.815,2.93-2.536c0.584-0.721,1.238-1.804,1.967-3.246c0.729-1.443,1.394-2.897,1.99-4.363
		c0.597-1.466,1.024-2.466,1.28-3.001c0.254-0.536,0.53-0.787,0.826-0.757C15.029,260.971,15.161,261.205,15.161,261.623z"/>
	<path fill="#004C00" d="M159.564,258.466c-0.061,1.633-0.102,3.098-0.124,4.393c-0.022,1.296-0.086,2.394-0.19,3.292
		c-0.18,1.933-0.552,3.645-1.112,5.135c-0.563,1.491-1.004,2.483-1.327,2.978c-0.322,0.495-0.588,0.854-0.798,1.079
		c-0.239,0.225-0.423,0.3-0.551,0.225c-0.126-0.075-0.175-0.202-0.146-0.381c0-0.045,0.135-0.727,0.404-2.045
		c0.27-1.318,0.439-2.595,0.506-3.831c0.068-1.236,0.08-2.982,0.034-5.236c-0.045-2.255,0.009-3.981,0.156-5.18
		c0.092-0.689,0.24-1.409,0.451-2.157c0.21-0.75,0.453-1.479,0.73-2.191c0.275-0.711,0.564-1.39,0.864-2.034
		c0.301-0.644,0.577-1.213,0.831-1.708c0.21-0.315,0.389-0.438,0.54-0.371c0.149,0.067,0.217,0.19,0.202,0.371
		c-0.03,0.105-0.064,0.333-0.101,0.686c-0.038,0.351-0.076,0.771-0.113,1.258c-0.038,0.487-0.071,1.007-0.101,1.562
		c-0.03,0.554-0.056,1.097-0.079,1.629c-0.021,0.532-0.041,1.022-0.056,1.472C159.572,257.859,159.564,258.211,159.564,258.466z"/>
	<path fill="#004C00" d="M27.188,258.466c-0.061,1.633-0.103,3.098-0.124,4.393c-0.023,1.296-0.086,2.394-0.19,3.292
		c-0.181,1.933-0.551,3.645-1.112,5.135c-0.563,1.491-1.006,2.483-1.327,2.978c-0.322,0.495-0.588,0.854-0.798,1.079
		c-0.239,0.225-0.423,0.3-0.551,0.225c-0.127-0.075-0.175-0.202-0.146-0.381c0-0.045,0.135-0.727,0.404-2.045
		c0.27-1.318,0.439-2.595,0.506-3.831c0.068-1.236,0.079-2.982,0.033-5.236c-0.043-2.255,0.009-3.981,0.158-5.18
		c0.09-0.689,0.239-1.409,0.45-2.157c0.21-0.75,0.452-1.479,0.73-2.191c0.275-0.711,0.564-1.39,0.864-2.034s0.576-1.213,0.831-1.708
		c0.21-0.315,0.39-0.438,0.539-0.371c0.15,0.067,0.218,0.19,0.203,0.371c-0.03,0.105-0.064,0.333-0.101,0.686
		c-0.039,0.351-0.076,0.771-0.113,1.258c-0.038,0.487-0.071,1.007-0.102,1.562c-0.029,0.554-0.055,1.097-0.078,1.629
		c-0.021,0.532-0.041,1.022-0.057,1.472C27.196,257.859,27.188,258.211,27.188,258.466z"/>
	<path fill="#004C00" d="M168.5,257.646c0.176-0.513,0.536-0.601,1.083-0.265c3.11,1.876,4.665,4.394,4.665,7.552
		c-0.129,2.357-0.629,4.417-1.504,6.181c-0.874,1.764-1.766,3.102-2.681,4.016c-1.57,1.587-3.833,2.758-6.782,3.511
		c-0.369,0.064-0.657,0.097-0.865,0.097c-0.29,0-0.434-0.072-0.434-0.216c0-0.257,0.434-0.698,1.299-1.323
		c1.732-1.203,3.352-2.573,4.858-4.113c1.476-1.475,2.212-2.453,2.212-2.934c0-1.251-1.37-2.991-4.112-5.219
		c-0.514-0.417-0.674-0.922-0.481-1.515C166.479,262.024,167.394,260.1,168.5,257.646z"/>
	<path fill="#004C00" d="M204.245,227.618c-0.889-0.902-1.714-1.353-2.448-1.353c-0.322,0.039-0.966,1.083-1.945,3.145
		s-1.47,3.222-1.47,3.492c0,0.271,0.219,0.554,0.645,0.876c0.438,0.309,1.057,0.838,1.882,1.559
		c0.824,0.722,1.353,1.083,1.598,1.083c0.387,0,1.005-0.773,1.844-2.307c0.824-1.534,1.249-2.732,1.249-3.596
		C205.599,229.591,205.148,228.624,204.245,227.618z M207.894,235.995c-0.979-0.902-1.792-1.353-2.424-1.353
		c-0.181,0-0.658,0.644-1.431,1.907c-0.528,0.902-1.082,1.83-1.661,2.771c-0.323-0.682-0.929-1.404-1.845-2.177
		c-0.901-0.761-1.571-1.147-1.996-1.147c-0.259,0.039-0.954,1.082-2.089,3.157c-1.12,2.075-1.688,3.26-1.688,3.583
		c0,0.18,0.618,0.747,1.856,1.728c1.224,0.979,1.933,1.468,2.112,1.468c0.826,0,1.96-1.482,3.404-4.434
		c0.577,0.413,1.313,1.096,2.204,2.023c0.63,0.657,1.106,0.979,1.441,0.979c0.426,0,1.135-0.696,2.114-2.088
		c0.953-1.456,1.43-2.68,1.43-3.647C209.323,237.929,208.847,237,207.894,235.995z"/>
	<path fill="#004C00" d="M89.321,227.618c-0.89-0.902-1.714-1.353-2.448-1.353c-0.322,0.039-0.967,1.083-1.946,3.145
		s-1.469,3.222-1.469,3.492c0,0.271,0.219,0.554,0.645,0.876c0.438,0.309,1.056,0.838,1.881,1.559
		c0.824,0.722,1.353,1.083,1.597,1.083c0.388,0,1.007-0.773,1.845-2.307c0.825-1.534,1.249-2.732,1.249-3.596
		C90.674,229.591,90.224,228.624,89.321,227.618z M92.969,235.995c-0.979-0.902-1.792-1.353-2.424-1.353
		c-0.181,0-0.657,0.644-1.43,1.907c-0.528,0.902-1.082,1.83-1.662,2.771c-0.323-0.682-0.928-1.404-1.844-2.177
		c-0.902-0.761-1.572-1.147-1.997-1.147c-0.258,0.039-0.953,1.082-2.088,3.157c-1.12,2.075-1.688,3.26-1.688,3.583
		c0,0.18,0.618,0.747,1.856,1.728c1.224,0.979,1.933,1.468,2.113,1.468c0.824,0,1.959-1.482,3.402-4.434
		c0.579,0.413,1.314,1.096,2.204,2.023c0.631,0.657,1.108,0.979,1.442,0.979c0.426,0,1.135-0.696,2.114-2.088
		c0.954-1.456,1.43-2.68,1.43-3.647C94.398,237.929,93.923,237,92.969,235.995z"/>
	<path fill="#004C00" d="M211.804,252.708c-0.166,1.343-0.603,2.646-1.316,3.899c-0.755,1.329-1.496,2.122-2.225,2.39
		c-0.766,0.205-1.368,0.537-1.803,0.984c-0.422,0.447-0.778,0.818-1.061,1.125c-0.281,0.306-0.601,0.485-0.972,0.537
		c-0.357,0.051-0.816,0.038-1.38-0.026c-0.561-0.076-1.074,0.064-1.521,0.422c-0.422,0.255-1.1,0.984-2.046,2.16
		c-0.944,1.176-1.533,2.071-1.765,2.659c-0.011,0-0.023,0.012-0.038,0.012l-1.033,1.931l-1.931,4.191
		c-0.575,1.24-1.062,1.739-1.444,1.496c-0.217-0.103-0.217-0.524,0-1.265l0.306-1.521c0.116-0.524-0.255-1.01-1.086-1.445
		c-0.832-0.447-1.878-0.665-3.143-0.665c-1.268,0.013-2.314,0.167-3.158,0.46h-0.013c-0.437,0.167-0.741,0.294-0.909,0.372
		c-1.392,0.536-2.978,1.904-4.741,4.077c-1.764,2.172-3.298,4.052-4.588,5.624c-2.633,3.388-5.611,6.187-8.909,8.385
		c-0.767,0.434-1.624,0.894-2.568,1.367c-1.369,0.678-2.391,1.176-3.068,1.483c-0.576,0.306-1.01,0.371-1.278,0.217
		c-0.142-0.217-0.09-0.447,0.179-0.703c0.154-0.115,0.345-0.256,0.551-0.447c0.205-0.167,0.447-0.345,0.701-0.55l3.312-2.365
		c2.146-1.7,3.425-2.773,3.847-3.221c1.215-1.125,2.071-1.994,2.569-2.619c0.55-0.473,1.278-1.292,2.211-2.442
		c0.64-0.792,2.007-2.697,4.077-5.713c1.177-1.649,2.123-2.901,2.838-3.771c0.064-0.077,0.128-0.141,0.206-0.217
		c0.023-0.038,0.051-0.063,0.088-0.102c3.925-4.78,7.899-7.158,11.951-7.158c1.202,0,2.147,0.14,2.85,0.422
		c0.603,0.229,1.139,0.575,1.624,1.022c0.831-1.304,1.752-2.544,2.761-3.72c1.777-2.096,3.144-2.99,4.091-2.671
		c1.149,0.588,1.968,0.55,2.467-0.115c0.498-0.665,0.907-1.573,1.228-2.723c0.063-0.191,0.177-0.307,0.331-0.332
		c0.166-0.026,0.307,0.038,0.448,0.204c0.894,0.972,1.674,0.422,2.364-1.649c0.242-0.651,0.497-0.971,0.754-0.971
		c0.127,0,0.205,0.116,0.229,0.346C211.816,252.325,211.816,252.53,211.804,252.708z"/>
	<path fill-rule="evenodd" clip-rule="evenodd" fill="#004C00" d="M141.46,238.954c0.308,0.131,0.616,0.264,0.926,0.396
		c0,0.221-0.155,0.479-0.155,0.7c-0.51,1.001-1.397,2.331-2.133,3.644c-0.818,1.465-1.623,2.897-2.608,3.627
		c-1.762,0.618-3.258,1.197-5.022,1.813c-2.504,1.11-4.935,2.908-7.401,4.363c-14.951,9.773-27.254,17.187-48.484,20.907
		c-5.179,0.907-15.261,1.175-21.316,0.662c-2.929-0.132-5.819-1.049-9.072-0.829c-3.398,0.199-6.912,1.979-9.182,3.587
		c-4.801,3.402-8.29,8.633-12.015,13.145c-3.234,3.92-7.296,6.806-11.784,9.463c-1.254,0.745-8.051,4.445-9.783,3.967
		c0.131-0.176,0.213-0.248,0.657-0.555c1.676-1.058,2.996-1.896,4.712-2.885c11.332-6.519,18.422-19.871,27.158-30.179
		c2.487-2.936,6.262-5.281,9.422-6.834c2.766-1.359,9.828-0.048,12.257,0.129c10.426,0.761,20.043,0.058,28.428-1.587
		c20.808-4.083,33.037-11.754,46.841-19.812C135.556,241.128,138.46,239.833,141.46,238.954z"/>
	<path fill="#004C00" d="M16.902,238.831c0.097,0.478,0.059,1.004-0.106,1.578c-0.169,0.573-0.439,1.215-0.813,1.924
		c-0.375,0.709-0.873,1.358-1.494,1.948c-0.398,0.382-0.718,0.573-0.956,0.573c-0.144,0-0.475-0.207-0.992-0.621
		c-0.519-0.415-0.984-0.797-1.398-1.148s-0.772-0.67-1.074-0.956c-0.304-0.287-0.455-0.526-0.455-0.717
		c0.319-0.637,0.55-1.124,0.693-1.458c0.479-1.083,0.887-1.936,1.23-2.558c0.342-0.622,0.889-1.538,1.638-2.749
		c0.43,0.351,0.959,0.772,1.589,1.266c0.629,0.494,1.119,0.956,1.47,1.387C16.585,237.731,16.807,238.242,16.902,238.831z"/>
	<path fill="#004C00" d="M48.699,299.74c0-0.355,0.54-1.53,1.627-3.521c1.083-1.992,1.758-3.05,2.026-3.174
		c0.445-0.177,1.104,0.15,1.975,0.987c0.87,0.835,1.529,1.574,1.974,2.214c0.533-0.872,1.125-1.85,1.773-2.934
		c0.648-1.085,1.089-1.637,1.32-1.654c0.658,0,1.451,0.484,2.375,1.453c0.925,0.971,1.415,1.88,1.468,2.735
		c0,1.014-0.499,2.214-1.494,3.602c-0.959,1.369-1.663,2.053-2.109,2.053c-0.302,0-0.841-0.387-1.611-1.16
		c-0.776-0.774-1.456-1.374-2.043-1.801c-1.439,2.899-2.585,4.348-3.439,4.348c-0.214,0-0.516-0.169-0.906-0.507
		c-0.375-0.32-0.959-0.801-1.75-1.441C49.094,300.3,48.699,299.9,48.699,299.74z"/>
</g>
</svg>
